<?xml version="1.0" encoding="UTF-8"?>
<svg version="1.1" xmlns="http://www.w3.org/2000/svg" width="609" height="609">
<path d="M0 0 C200.97 0 401.94 0 609 0 C609 200.97 609 401.94 609 609 C408.03 609 207.06 609 0 609 C0 408.03 0 207.06 0 0 Z " fill="#393C51" transform="translate(0,0)"/>
<path d="M0 0 C0.77448486 0.06993164 1.54896973 0.13986328 2.34692383 0.21191406 C6.8001798 0.70721361 10.59038603 1.77983481 14.73901367 3.4543457 C17.81532356 4.61186463 20.97159887 5.22563535 24.1875 5.875 C25.4146875 6.12636719 26.641875 6.37773437 27.90625 6.63671875 C29.28296875 6.90935547 29.28296875 6.90935547 30.6875 7.1875 C30.6875 7.8475 30.6875 8.5075 30.6875 9.1875 C31.63625 9.249375 32.585 9.31125 33.5625 9.375 C37.85096202 9.97399571 41.27836217 11.80694254 45.0625 13.8359375 C47.78193031 15.27745681 47.78193031 15.27745681 51.08984375 16.62890625 C68.63424209 24.22957394 83.69148994 36.38400905 97.6875 49.1875 C98.25355957 49.70151367 98.81961914 50.21552734 99.40283203 50.74511719 C122.24477228 71.72993461 122.24477228 71.72993461 124.6875 84.1875 C125.3475 84.1875 126.0075 84.1875 126.6875 84.1875 C127.52819415 85.78782137 128.35981505 87.39291171 129.1875 89 C129.6515625 89.89332031 130.115625 90.78664063 130.59375 91.70703125 C131.6875 94.1875 131.6875 94.1875 131.6875 97.1875 C132.3475 97.1875 133.0075 97.1875 133.6875 97.1875 C134.3475 99.8275 135.0075 102.4675 135.6875 105.1875 C136.3475 105.1875 137.0075 105.1875 137.6875 105.1875 C138.00203125 106.13109375 138.3165625 107.0746875 138.640625 108.046875 C138.84574707 108.66183838 139.05086914 109.27680176 139.26220703 109.91040039 C139.71728268 111.27644997 140.1713638 112.64283122 140.62451172 114.00952148 C141.66244896 117.13607982 142.71141782 120.25549016 143.8046875 123.36328125 C146.42184728 130.85971952 148.19580397 138.39297846 149.6875 146.1875 C149.85178371 146.89359531 150.01606743 147.59969063 150.18532944 148.32718277 C152.09111344 157.2148063 151.96941418 166.05262562 151.94628906 175.08886719 C151.94900369 176.87893821 151.95256726 178.66900811 151.95690918 180.45907593 C151.96598199 185.2940164 151.96250939 190.12887096 151.95615101 194.96381283 C151.95106132 200.04433855 151.95579097 205.12485727 151.95892334 210.2053833 C151.96255569 218.73914906 151.95778448 227.27288014 151.94824219 235.80664062 C151.93737303 245.63989257 151.94087499 255.47306146 151.951895 265.30631137 C151.96100545 273.77804226 151.96223443 282.24974831 151.95701766 290.72148252 C151.95391675 295.76824123 151.9534362 300.81496108 151.96009064 305.86171722 C151.96591787 310.61259927 151.96177003 315.3633756 151.95030212 320.11424637 C151.94768344 321.84629008 151.9483721 323.57834288 151.95282745 325.31038284 C152.01332954 351.24567827 152.01332954 351.24567827 147.6875 361.1875 C147.17864576 362.96049736 146.70066911 364.74257742 146.25 366.53125 C145.99476563 367.53027344 145.73953125 368.52929688 145.4765625 369.55859375 C145.08597656 371.10740234 145.08597656 371.10740234 144.6875 372.6875 C144.16979617 374.74037508 143.64906401 376.79248934 143.125 378.84375 C142.78275391 380.20209961 142.78275391 380.20209961 142.43359375 381.58789062 C141.68167934 384.2077809 140.74276213 386.6761573 139.6875 389.1875 C139.0275 389.1875 138.3675 389.1875 137.6875 389.1875 C137.501875 390.404375 137.31625 391.62125 137.125 392.875 C135.60352591 399.61145772 132.1650059 405.29051779 128.6875 411.1875 C128.1296582 412.1463208 128.1296582 412.1463208 127.56054688 413.12451172 C121.78383478 422.9830158 115.33142769 431.71134946 107.6875 440.1875 C106.66371804 441.34474744 105.64028547 442.50230406 104.6171875 443.66015625 C103.6211189 444.77462515 102.6237644 445.88794638 101.625 447 C100.92709351 447.78358887 100.92709351 447.78358887 100.21508789 448.58300781 C99.08100823 449.8240204 97.8888943 451.01153203 96.6875 452.1875 C96.0275 452.1875 95.3675 452.1875 94.6875 452.1875 C94.6875 452.8475 94.6875 453.5075 94.6875 454.1875 C93.25048828 455.51611328 93.25048828 455.51611328 91.2578125 457.0078125 C90.54496094 457.54277344 89.83210938 458.07773437 89.09765625 458.62890625 C88.34355469 459.18449219 87.58945312 459.74007813 86.8125 460.3125 C86.06613281 460.87582031 85.31976563 461.43914062 84.55078125 462.01953125 C78.94975787 466.1875 78.94975787 466.1875 76.6875 466.1875 C76.6875 466.8475 76.6875 467.5075 76.6875 468.1875 C76.0275 468.1875 75.3675 468.1875 74.6875 468.1875 C74.6875 468.8475 74.6875 469.5075 74.6875 470.1875 C73.39836513 470.85904933 72.10609796 471.52458859 70.8125 472.1875 C70.09320313 472.55875 69.37390625 472.93 68.6328125 473.3125 C66.6875 474.1875 66.6875 474.1875 64.6875 474.1875 C64.6875 474.8475 64.6875 475.5075 64.6875 476.1875 C51.98382269 483.11677853 39.13060518 488.103899 25.31054688 492.36669922 C23.15396304 493.04153493 21.02168077 493.75376036 18.890625 494.50390625 C7.83998003 498.15600965 -3.77395483 498.4675251 -15.3125 499.1875 C-15.6425 505.1275 -15.9725 511.0675 -16.3125 517.1875 C-14.75759354 517.18083817 -13.20268707 517.17417633 -11.60066223 517.16731262 C3.04033185 517.10654374 17.68127966 517.06136746 32.32236767 517.03206348 C39.84981032 517.01659683 47.37715881 516.99551125 54.90454102 516.96118164 C61.46567403 516.93127301 68.02673884 516.91192352 74.58793813 516.90523452 C78.06183109 516.90132471 81.53552895 516.89214054 85.00935936 516.87030983 C88.88803124 516.84613284 92.76651251 516.84553096 96.64526367 516.84692383 C97.79612961 516.836138 98.94699554 516.82535217 100.13273621 516.8142395 C101.19137878 516.81836349 102.25002136 516.82248749 103.34074402 516.82673645 C104.25792804 516.82397107 105.17511206 516.82120569 106.12008953 516.81835651 C110.18557121 517.40289338 112.82604466 519.32604466 115.6875 522.1875 C115.97511292 524.51361084 115.97511292 524.51361084 116.02563477 527.45996094 C116.04807755 528.56160583 116.07052032 529.66325073 116.09364319 530.79827881 C116.10528 531.99406555 116.11691681 533.18985229 116.12890625 534.421875 C116.14267807 535.64779358 116.15644989 536.87371216 116.17063904 538.13677979 C116.19395147 540.73599713 116.21119619 543.33527478 116.22290039 545.93457031 C116.24266455 549.90777169 116.32467891 553.87904041 116.40039062 557.8515625 C116.41704927 560.37498205 116.43081523 562.89842269 116.44140625 565.421875 C116.47126114 566.60956482 116.50111603 567.79725464 116.53187561 569.02093506 C116.52298561 570.69231537 116.52298561 570.69231537 116.51391602 572.39746094 C116.52342789 573.37293884 116.53293976 574.34841675 116.54273987 575.35345459 C115.23254836 579.69509296 112.56158188 581.92282384 108.6875 584.1875 C105.02766436 585.03342196 101.48004565 584.99030181 97.73628235 584.9359436 C96.64281516 584.94389242 95.54934797 584.95184123 94.42274541 584.96003091 C90.76347685 584.97926043 87.10575805 584.95565359 83.4465332 584.93212891 C80.82147647 584.93698535 78.19642343 584.94442458 75.57138062 584.95425415 C69.18532707 584.97320548 62.79972632 584.96005389 56.41370646 584.93572827 C48.97711288 584.90845767 41.54062658 584.9117665 34.1039957 584.91599493 C20.83738535 584.92237074 7.57098997 584.89905975 -5.69555664 584.85986328 C-18.5706232 584.82183344 -31.44543794 584.80769462 -44.32055664 584.81884766 C-58.34342416 584.83095901 -72.36618102 584.83061872 -86.38903934 584.80787599 C-87.88368117 584.80546141 -89.37832301 584.80304943 -90.87296486 584.80064011 C-91.60835454 584.79943303 -92.34374422 584.79822595 -93.10141843 584.7969823 C-98.28636674 584.78922032 -103.47127388 584.79001254 -108.6562252 584.7938118 C-115.63059669 584.79849517 -122.60463824 584.78142201 -129.57893753 584.74969101 C-132.14282833 584.74118522 -134.70675197 584.73951766 -137.27065086 584.74507141 C-140.76153768 584.75148759 -144.25144702 584.73342317 -147.74223328 584.70889282 C-148.76469027 584.71645147 -149.78714726 584.72401012 -150.84058779 584.73179781 C-157.68194185 584.64633245 -157.68194185 584.64633245 -160.84814167 582.34241295 C-163.45245858 578.50996558 -164.56436198 576.6080579 -164.5871582 571.96923828 C-164.60145622 570.37210495 -164.60145622 570.37210495 -164.61604309 568.7427063 C-164.61513168 567.59269135 -164.61422028 566.44267639 -164.61328125 565.2578125 C-164.61756638 564.07532928 -164.6218515 562.89284607 -164.62626648 561.67453003 C-164.63201386 559.17121013 -164.63250706 556.66787353 -164.62817383 554.16455078 C-164.62501827 550.33467052 -164.64845389 546.50556571 -164.67382812 542.67578125 C-164.6761015 540.24479264 -164.67680444 537.81380196 -164.67578125 535.3828125 C-164.684991 534.23684601 -164.69420074 533.09087952 -164.70368958 531.91018677 C-164.69746078 530.83912689 -164.69123199 529.76806702 -164.68481445 528.66455078 C-164.68544388 527.72539825 -164.6860733 526.78624573 -164.6867218 525.81863403 C-164.23331637 522.63076402 -163.20132462 520.77824134 -161.3125 518.1875 C-158.01798921 515.99115947 -157.06597961 515.93926243 -153.24421692 515.94699097 C-152.19673782 515.94424164 -151.14925873 515.94149231 -150.07003784 515.93865967 C-148.92133209 515.94585022 -147.77262634 515.95304077 -146.58911133 515.96044922 C-144.77429008 515.96001114 -144.77429008 515.96001114 -142.92280579 515.95956421 C-139.60481005 515.96071965 -136.28706252 515.97075703 -132.96911073 515.98471212 C-129.5017687 515.99720607 -126.03442344 515.99838893 -122.56706238 516.00076294 C-116.00101001 516.00698164 -109.43502416 516.02339772 -102.86900109 516.04346192 C-95.3938715 516.06580879 -87.91873875 516.07681129 -80.44358408 516.08685279 C-65.06651647 516.10776363 -49.68951942 516.14334955 -34.3125 516.1875 C-34.3125 510.5775 -34.3125 504.9675 -34.3125 499.1875 C-36.21 499.249375 -38.1075 499.31125 -40.0625 499.375 C-46.91790072 499.375 -52.75789434 498.03623493 -59.3125 496.1875 C-61.55963892 495.65445775 -63.80972384 495.13369139 -66.0625 494.625 C-70.8283463 493.53533598 -75.57523357 492.3950385 -80.3125 491.1875 C-80.3125 490.5275 -80.3125 489.8675 -80.3125 489.1875 C-81.22 489.125625 -82.1275 489.06375 -83.0625 489 C-92.57258525 487.5499474 -101.17853614 482.30126856 -109.5 477.75 C-110.74656372 477.0686499 -110.74656372 477.0686499 -112.01831055 476.37353516 C-116.94651212 473.63211613 -121.68007954 470.69928627 -126.34082031 467.52416992 C-127.61312803 466.66162847 -128.89837055 465.817728 -130.19824219 464.99731445 C-131.60206369 464.1100126 -132.96345076 463.15604817 -134.3125 462.1875 C-134.3125 461.5275 -134.3125 460.8675 -134.3125 460.1875 C-135.3953125 459.878125 -135.3953125 459.878125 -136.5 459.5625 C-139.52330793 458.08443835 -140.96782782 456.38621948 -143.00390625 453.75390625 C-144.68590883 451.74052406 -146.69365234 450.21007862 -148.73046875 448.5703125 C-151.93767074 445.76698039 -154.56646513 442.4313847 -157.3125 439.1875 C-158.17359375 438.21425781 -159.0346875 437.24101562 -159.921875 436.23828125 C-176.3125 417.57594306 -176.3125 417.57594306 -176.3125 411.1875 C-176.9725 411.1875 -177.6325 411.1875 -178.3125 411.1875 C-179.00085938 409.61162109 -179.00085938 409.61162109 -179.703125 408.00390625 C-180.14603882 406.99094482 -180.14603882 406.99094482 -180.59790039 405.95751953 C-181.24647499 404.47323415 -181.89408293 402.98852605 -182.54077148 401.50341797 C-184.10578282 397.91534319 -185.701623 394.35151434 -187.375 390.8125 C-192.46600109 379.17281802 -195.7194993 367.26361369 -198.125 354.8125 C-198.43522095 353.20967163 -198.43522095 353.20967163 -198.75170898 351.57446289 C-201.0763701 338.9144973 -201.46248059 326.3644748 -201.45776367 313.53027344 C-201.46076221 311.88633143 -201.46416632 310.24239012 -201.46794128 308.59844971 C-201.476709 304.16900855 -201.47911616 299.73958675 -201.47975707 295.31013775 C-201.48047102 292.53805786 -201.48261171 289.7659828 -201.48525429 286.99390411 C-201.4944796 277.31071157 -201.4985922 267.62753273 -201.49780273 257.94433594 C-201.4972008 248.93514931 -201.50778253 239.92602233 -201.5235464 230.91685081 C-201.53663098 223.16113115 -201.54198633 215.405431 -201.54134732 207.6497004 C-201.54109287 203.02626962 -201.54391619 198.40289208 -201.55452538 193.77947235 C-201.56422332 189.43570926 -201.56427394 185.0920502 -201.55700874 180.74828339 C-201.55596543 179.15842537 -201.5583107 177.5685608 -201.5643692 175.97871399 C-201.61662492 161.31227656 -201.61662492 161.31227656 -199.3125 154.1875 C-198.97538973 152.61261235 -198.6510056 151.03486253 -198.34765625 149.453125 C-198.1892627 148.6381958 -198.03086914 147.8232666 -197.86767578 146.98364258 C-197.70509277 146.14341553 -197.54250977 145.30318848 -197.375 144.4375 C-194.68739161 130.88716586 -191.05902368 118.15211485 -186.3125 105.1875 C-185.6525 105.1875 -184.9925 105.1875 -184.3125 105.1875 C-184.168125 104.23875 -184.02375 103.29 -183.875 102.3125 C-183.3125 99.1875 -183.3125 99.1875 -182.3125 97.1875 C-181.6525 97.1875 -180.9925 97.1875 -180.3125 97.1875 C-180.209375 96.259375 -180.10625 95.33125 -180 94.375 C-179.24877279 90.89203746 -178.74156535 90.52313976 -176.3125 88.1875 C-175.29720459 85.86078135 -174.29761802 83.5271553 -173.3125 81.1875 C-171.75 78.75 -171.75 78.75 -170.3125 77.1875 C-169.6525 77.1875 -168.9925 77.1875 -168.3125 77.1875 C-168.10625 76.3625 -167.9 75.5375 -167.6875 74.6875 C-165.96229213 70.29606178 -163.53780939 66.64068451 -160.3125 63.1875 C-159.6525 63.1875 -158.9925 63.1875 -158.3125 63.1875 C-158.07789063 62.63707031 -157.84328125 62.08664063 -157.6015625 61.51953125 C-153.34430058 53.81775741 -145.46139463 46.32138756 -138.3125 41.1875 C-137.6525 41.1875 -136.9925 41.1875 -136.3125 41.1875 C-136.3125 40.5275 -136.3125 39.8675 -136.3125 39.1875 C-134.72705078 37.77050781 -134.72705078 37.77050781 -132.5078125 36.140625 C-131.69570312 35.5425 -130.88359375 34.944375 -130.046875 34.328125 C-129.18578125 33.70421875 -128.3246875 33.0803125 -127.4375 32.4375 C-126.20386719 31.52484375 -126.20386719 31.52484375 -124.9453125 30.59375 C-109.3470219 19.1875 -109.3470219 19.1875 -103.3125 19.1875 C-103.3125 18.5275 -103.3125 17.8675 -103.3125 17.1875 C-100.6725 16.5275 -98.0325 15.8675 -95.3125 15.1875 C-95.3125 14.5275 -95.3125 13.8675 -95.3125 13.1875 C-92.39916921 12.17759308 -89.48134681 11.18134048 -86.5625 10.1875 C-85.325 9.75824219 -85.325 9.75824219 -84.0625 9.3203125 C-83.26328125 9.04960937 -82.4640625 8.77890625 -81.640625 8.5 C-80.54089355 8.12294922 -80.54089355 8.12294922 -79.41894531 7.73828125 C-77.3125 7.1875 -77.3125 7.1875 -73.3125 7.1875 C-73.3125 6.5275 -73.3125 5.8675 -73.3125 5.1875 C-49.23611206 -1.48778387 -24.85705163 -2.33399546 0 0 Z " fill="#F2CB74" transform="translate(337.3125,13.8125)"/>
<path d="M0 0 C0 0.66 0 1.32 0 2 C0.7115625 2.12632813 1.423125 2.25265625 2.15625 2.3828125 C5.04973954 3.01079512 7.71739395 3.86669612 10.5 4.875 C11.4178125 5.20242187 12.335625 5.52984375 13.28125 5.8671875 C16.06418416 7.0267434 18.52019906 8.28390587 21 10 C21 10.66 21 11.32 21 12 C21.67546875 12.06960937 22.3509375 12.13921875 23.046875 12.2109375 C27.01950673 13.27240788 29.89302592 15.30325536 33.25 17.625 C33.91531738 18.07866943 34.58063477 18.53233887 35.26611328 18.99975586 C43.09997648 24.38208293 50.14877785 29.97033069 56.79296875 36.7890625 C59.50237945 39.50326862 62.35529983 42.00636652 65.2734375 44.4921875 C66.93380486 45.94219158 68.53313669 47.35315346 70 49 C70 49.66 70 50.32 70 51 C65.75707468 49.39369175 61.72974893 47.4231838 57.6875 45.375 C57.04232422 45.05015625 56.39714844 44.7253125 55.73242188 44.390625 C54.15402459 43.59558044 52.57688306 42.79804366 51 42 C51 41.34 51 40.68 51 40 C50.16210938 39.88785156 49.32421875 39.77570313 48.4609375 39.66015625 C44.66343766 38.93580244 41.25153492 37.77179115 37.625 36.4375 C36.98433594 36.20353516 36.34367188 35.96957031 35.68359375 35.72851562 C34.1206839 35.15700381 32.56009273 34.57915771 31 34 C31 33.34 31 32.68 31 32 C29.865625 31.896875 28.73125 31.79375 27.5625 31.6875 C24.52431968 31.31235078 21.8694361 30.68099671 19 29.625 C13.89031782 27.78983246 8.65581463 26.91440111 3.3203125 26.00244141 C-1.90467437 25.09532563 -1.90467437 25.09532563 -3 24 C-4.43551034 23.70397826 -5.88236676 23.4624076 -7.33203125 23.24609375 C-8.21310547 23.11396484 -9.09417969 22.98183594 -10.00195312 22.84570312 C-10.92943359 22.71099609 -11.85691406 22.57628906 -12.8125 22.4375 C-13.72837891 22.29892578 -14.64425781 22.16035156 -15.58789062 22.01757812 C-19.46595682 21.44420053 -23.06627969 21 -27 21 C-26.40574219 21.268125 -25.81148437 21.53625 -25.19921875 21.8125 C-14.97852093 26.64468062 -5.22739416 33.17802317 2 42 C2 42.66 2 43.32 2 44 C2.73863281 44.10957031 3.47726562 44.21914062 4.23828125 44.33203125 C11.3182183 45.43855254 18.12855962 46.97103138 25 49 C25 49.66 25 50.32 25 51 C26.093125 51.144375 27.18625 51.28875 28.3125 51.4375 C32 52 32 52 35 53 C35 53.66 35 54.32 35 55 C35.84691406 55.09539062 36.69382812 55.19078125 37.56640625 55.2890625 C41.46675255 56.09664273 44.41292054 57.52897717 47.9375 59.375 C52.56876784 61.78551593 57.18428365 63.99498911 62 66 C62 66.66 62 67.32 62 68 C62.9075 68.28875 63.815 68.5775 64.75 68.875 C67.32202908 69.76531776 69.61346766 70.71494413 72 72 C72 72.66 72 73.32 72 74 C73.98 74.66 75.96 75.32 78 76 C78 76.66 78 77.32 78 78 C78.55558594 78.26167969 79.11117188 78.52335937 79.68359375 78.79296875 C82.27496867 80.14328047 84.64632507 81.66891796 87.0625 83.3125 C88.34833984 84.17294922 88.34833984 84.17294922 89.66015625 85.05078125 C93.69436263 88.41149742 95.31831066 92.41554582 96.68359375 97.39453125 C96.96960449 98.42529785 97.25561523 99.45606445 97.55029297 100.51806641 C97.84307129 101.60522949 98.13584961 102.69239258 98.4375 103.8125 C98.74316895 104.92802246 99.04883789 106.04354492 99.36376953 107.19287109 C107.2107033 135.98991207 107.2107033 135.98991207 107 148 C106.34 148 105.68 148 105 148 C103.56514326 145.92203622 102.24222016 143.84525294 100.9375 141.6875 C90.61754255 125.19639544 77.14471414 111.5371024 61.265625 100.359375 C60.62222168 99.90578613 59.97881836 99.45219727 59.31591797 98.98486328 C58.03898894 98.09020986 56.75685808 97.20292769 55.46923828 96.32373047 C53.94477456 95.26409906 52.46729798 94.13747307 51 93 C51 92.34 51 91.68 51 91 C50.05125 90.690625 49.1025 90.38125 48.125 90.0625 C45 89 45 89 43 88 C43 87.34 43 86.68 43 86 C40.03 85.01 37.06 84.02 34 83 C34 82.34 34 81.68 34 81 C32.9275 80.896875 31.855 80.79375 30.75 80.6875 C26.9647974 79.99354619 25.87293068 79.31687958 23 77 C21.01985568 76.27648573 19.02178685 75.59734611 17 75 C17.23771118 75.86963379 17.23771118 75.86963379 17.48022461 76.75683594 C18.28088618 80.21220398 18.37223082 83.71910303 18.5625 87.25 C18.62727539 88.36761719 18.62727539 88.36761719 18.69335938 89.5078125 C18.79896725 91.338349 18.89994201 93.16915176 19 95 C21.97 95.99 21.97 95.99 25 97 C25 97.66 25 98.32 25 99 C25.680625 99.0825 26.36125 99.165 27.0625 99.25 C30.78185707 100.19962308 33.75268587 102.02964238 37 104 C38.31045154 104.7535735 39.62288063 105.50372112 40.9375 106.25 C41.948125 106.8275 42.95875 107.405 44 108 C44 108.66 44 109.32 44 110 C45.98 110.66 47.96 111.32 50 112 C50 112.66 50 113.32 50 114 C50.66 114 51.32 114 52 114 C52 114.66 52 115.32 52 116 C52.58177002 116.26176025 53.16354004 116.52352051 53.76293945 116.79321289 C57.79213649 118.96677187 60.88384754 122.3050789 64.1875 125.4375 C64.94764404 126.15599121 65.70778809 126.87448242 66.4909668 127.61474609 C72.17900916 133.06246577 77.33120696 138.64040574 82 145 C82.46921875 145.63808594 82.9384375 146.27617187 83.421875 146.93359375 C86 150.61536815 86 150.61536815 86 153 C86.66 153 87.32 153 88 153 C88.67154933 154.28913487 89.33708859 155.58140204 90 156.875 C90.37125 157.59429687 90.7425 158.31359375 91.125 159.0546875 C92 161 92 161 92 163 C92.66 163 93.32 163 94 163 C96.53309233 167.64203897 98.46515599 171.65155992 99 177 C99.66 177 100.32 177 101 177 C104.95179753 185.82067431 106.73047472 193.18030575 106.61523438 202.82006836 C106.62078339 204.0284285 106.6263324 205.23678864 106.63204956 206.48176575 C106.6417456 209.75494698 106.62940471 213.02706426 106.60576439 216.30014491 C106.58542688 219.75287094 106.59154677 223.20556917 106.59387207 226.65834045 C106.59381873 232.45392721 106.57420674 238.24918541 106.54199219 244.04467773 C106.5051272 250.7084289 106.49631689 257.37175025 106.5032897 264.03559011 C106.50963499 270.49144688 106.49876544 276.94715904 106.47932434 283.40298653 C106.4712314 286.12949273 106.4684256 288.85592418 106.47001648 291.58244133 C106.45670385 319.62988844 106.45670385 319.62988844 102 333 C95.16 331.024 95.16 331.024 93 328 C90.89627981 322.92965516 90.69536077 318.45056886 90.68115234 313.05712891 C90.67110672 312.1784314 90.6610611 311.29973389 90.65071106 310.39440918 C90.61994926 307.50513329 90.6028634 304.61594977 90.5859375 301.7265625 C90.56722022 299.71730763 90.54764639 297.70806057 90.5272522 295.69882202 C90.47598419 290.42173881 90.43632988 285.14463013 90.39910889 279.86743164 C90.35903585 274.47796353 90.30795855 269.08860088 90.2578125 263.69921875 C90.16111631 253.13288664 90.0766913 242.56649492 90 232 C89.34 232 88.68 232 88 232 C87.74476563 230.18628906 87.74476563 230.18628906 87.484375 228.3359375 C85.7708306 216.59743635 83.52143299 205.43434439 79.25 194.3125 C78 191 78 191 78 188 C77.34 188 76.68 188 76 188 C74.74335022 185.09399739 74 183.20395416 74 180 C73.34 180 72.68 180 72 180 C71.67 178.35 71.34 176.7 71 175 C70.34 175 69.68 175 69 175 C68.578396 174.12778809 68.15679199 173.25557617 67.72241211 172.35693359 C62.60600757 162.38520257 55.89371896 154.20016501 47.9375 146.375 C47.02009033 145.46492187 46.10268066 144.55484375 45.1574707 143.6171875 C37.98016582 136.64340972 30.62393038 131.0189332 22 126 C20.4139915 124.98332789 18.83012363 123.96329455 17.25 122.9375 C14.14555112 120.92953693 14.14555112 120.92953693 11 120 C10.73445312 120.72832031 10.46890625 121.45664063 10.1953125 122.20703125 C9.00529212 124.98763443 7.61048964 127.21840966 5.875 129.6875 C3.63673812 132.58167089 3.63673812 132.58167089 3 136 C3.80824219 136.39832031 4.61648438 136.79664063 5.44921875 137.20703125 C6.51785156 137.73683594 7.58648437 138.26664063 8.6875 138.8125 C9.74324219 139.33457031 10.79898438 139.85664063 11.88671875 140.39453125 C14.67961178 141.83478098 17.39751097 143.23764657 20 145 C20 145.66 20 146.32 20 147 C20.85658203 147.39638672 20.85658203 147.39638672 21.73046875 147.80078125 C42.96394707 159.02053658 58.33036839 184.42201905 65.85400391 206.50683594 C67.51514732 211.94427643 68.8824541 217.42692404 70 223 C70.2594339 224.28348328 70.2594339 224.28348328 70.52410889 225.59289551 C72.18422211 234.92285224 72.26772564 244.06865322 72.24382973 253.52070999 C72.23815704 256.41493687 72.24752161 259.30877471 72.2610321 262.20297241 C72.297843 270.42179331 72.31669657 278.64047357 72.30541992 286.859375 C72.29954196 291.91259131 72.31794706 296.96524998 72.35130882 302.01835251 C72.35921059 303.92951269 72.35805755 305.84073449 72.34728432 307.75188065 C72.29101346 318.17447365 72.29518704 326.86984907 78 336 C78.44632278 336.75527985 78.89264557 337.51055969 79.35249329 338.28872681 C83.26914431 344.63714006 89.53520079 347.65253116 96 351 C95.34309381 354.78239671 94.279869 358.21841526 92.9375 361.8125 C92.57527344 362.78832031 92.21304687 363.76414062 91.83984375 364.76953125 C91.42412109 365.87361328 91.42412109 365.87361328 91 367 C90.34 367 89.68 367 89 367 C88.87625 367.7425 88.7525 368.485 88.625 369.25 C88.04513299 371.80141485 87.26291261 373.7267573 86 376 C81.59245089 375.48749429 78.68643389 374.4576226 75 372 C74.34 371.67 73.68 371.34 73 371 C73 370.34 73 369.68 73 369 C71.68 368.67 70.36 368.34 69 368 C69 367.34 69 366.68 69 366 C68.40703125 365.7421875 67.8140625 365.484375 67.203125 365.21875 C64.82339035 363.90230105 63.49021208 362.57419218 61.75 360.5 C61.22921875 359.8915625 60.7084375 359.283125 60.171875 358.65625 C59 357 59 357 59 355 C58.34 355 57.68 355 57 355 C56.15930585 353.39967863 55.32768495 351.79458829 54.5 350.1875 C54.0359375 349.29417969 53.571875 348.40085937 53.09375 347.48046875 C52 345 52 345 52 342 C51.34 342 50.68 342 50 342 C47.15612481 335.74347459 46.87704635 329.45435837 46.8581543 322.65942383 C46.85467987 321.96256973 46.85120544 321.26571564 46.84762573 320.54774475 C46.84032314 319.04785252 46.83494879 317.54794986 46.83133507 316.0480442 C46.82411514 313.67294863 46.80841212 311.2980532 46.78999329 308.92301941 C46.73775297 302.17502415 46.68949267 295.42714871 46.67407227 288.67895508 C46.66399864 284.54040943 46.63470566 280.40238399 46.59275246 276.26404381 C46.58044403 274.6904258 46.57532093 273.11673441 46.57755089 271.54306984 C46.57990084 269.34560939 46.55776958 267.14965017 46.5300293 264.95239258 C46.52122993 263.078778 46.52122993 263.078778 46.51225281 261.16731262 C45.9083987 257.43361961 44.94241172 256.289897 42 254 C39.15916359 252.57958179 37.14522722 252.68547728 34 253 C30.93591888 255.23314313 30.08840327 256.45206011 29.47860718 260.23168945 C29.4693924 261.51261475 29.46017761 262.79354004 29.45068359 264.11328125 C29.4353508 265.17787567 29.4353508 265.17787567 29.41970825 266.26397705 C29.39189299 268.61382799 29.39383698 270.96250368 29.3984375 273.3125 C29.39065179 274.96281358 29.38198004 276.6131232 29.37246704 278.26342773 C29.35752839 281.73369255 29.35812539 285.20355087 29.36865234 288.67382812 C29.37784694 292.19648776 29.36436008 295.71775596 29.32763672 299.24023438 C28.99480426 326.66285909 28.99480426 326.66285909 36 353 C36 353.66 36 354.32 36 355 C36.66 355 37.32 355 38 355 C38.33 356.98 38.66 358.96 39 361 C39.66 361 40.32 361 41 361 C45 367.75 45 367.75 45 370 C45.5878125 370.2475 46.175625 370.495 46.78125 370.75 C50.03073238 372.5806943 51.89836274 375.25615757 54.21875 378.125 C56.06743052 380.0709795 57.60433921 380.85920915 60 382 C60.46019531 382.47050781 60.92039062 382.94101562 61.39453125 383.42578125 C63.57192802 385.5607956 65.99836977 386.76384282 68.6875 388.1875 C69.68136719 388.71730469 70.67523438 389.24710937 71.69921875 389.79296875 C72.45847656 390.19128906 73.21773438 390.58960938 74 391 C73.41126422 394.12110614 72.5152444 395.90587231 70.41796875 398.27734375 C69.89783203 398.87353516 69.37769531 399.46972656 68.84179688 400.08398438 C68.02291992 401.00147461 68.02291992 401.00147461 67.1875 401.9375 C66.11777908 403.15432368 65.04875528 404.37176059 63.98046875 405.58984375 C63.47177246 406.16718262 62.96307617 406.74452148 62.43896484 407.33935547 C60.55979398 409.50802195 58.76983679 411.74163683 57 414 C52.78525938 413.50062315 50.32795009 410.92130375 47.375 408.125 C46.58875244 407.39494751 46.58875244 407.39494751 45.78662109 406.65014648 C41.35522666 402.47536289 37.3143151 398.03336762 33.3515625 393.41015625 C27.83574759 387.75690409 21.96288386 384.98453596 14.125 384.625 C8.99975503 384.74078114 5.16930918 386.01778579 1 389 C-1.63120799 391.76969262 -3.45144277 394.51574622 -5 398 C-5.66 398 -6.32 398 -7 398 C-7.22816406 398.69996094 -7.45632813 399.39992188 -7.69140625 400.12109375 C-9.26866235 403.59105718 -11.45104212 406.22261727 -13.9375 409.0625 C-14.42476562 409.62686768 -14.91203125 410.19123535 -15.4140625 410.77270508 C-16.93355915 412.52339764 -18.46478634 414.26308303 -20 416 C-20.46680176 416.53141602 -20.93360352 417.06283203 -21.41455078 417.61035156 C-31.86654295 429.45867329 -43.33558461 439.39418709 -56.12231445 448.62353516 C-57.37976062 449.54532445 -58.61821987 450.4935569 -59.83666992 451.46630859 C-62.62745497 453.63891318 -64.33181679 454.91343375 -67.89453125 455.375 C-68.85746094 455.25125 -69.82039062 455.1275 -70.8125 455 C-71.92496094 454.86335938 -73.03742188 454.72671875 -74.18359375 454.5859375 C-75.44300781 454.39257812 -76.70242188 454.19921875 -78 454 C-78.73879395 453.8959082 -79.47758789 453.79181641 -80.23876953 453.68457031 C-82.62039592 453.3483523 -84.99788761 452.99172244 -87.375 452.625 C-88.12370361 452.5115625 -88.87240723 452.398125 -89.64379883 452.28125 C-94.49165741 451.46922424 -98.55300749 450.10029461 -103 448 C-101.70123262 444.10369787 -100.37829896 443.85464687 -96.8125 441.9375 C-86.78878135 436.29319176 -77.57919376 429.44618438 -68.671875 422.1796875 C-67 421 -67 421 -65 421 C-65 420.34 -65 419.68 -65 419 C-63.42366615 417.60946976 -61.78595085 416.28827212 -60.125 415 C-44.75895898 402.66776708 -32.65812485 387.22008181 -22.2265625 370.58203125 C-21.82179688 370.05996094 -21.41703125 369.53789062 -21 369 C-20.34 369 -19.68 369 -19 369 C-18.9175 368.33226562 -18.835 367.66453125 -18.75 366.9765625 C-17.76440092 363.06496616 -15.95797328 359.88018294 -14 356.375 C-11.17716709 351.3375344 -11.17716709 351.3375344 -9 346 C-8.34 346 -7.68 346 -7 346 C-6.8453125 344.515 -6.8453125 344.515 -6.6875 343 C-6.09191294 338.71702837 -4.61404973 335.00003629 -3 331 C-2.34 331 -1.68 331 -1 331 C-0.8453125 329.824375 -0.8453125 329.824375 -0.6875 328.625 C-0.14306829 325.75436009 0.54006079 323.2468242 1.44140625 320.48828125 C3.14036493 314.90168432 3.93553669 309.34850744 4.625 303.5625 C4.86467348 301.62598928 5.1067517 299.68977423 5.3515625 297.75390625 C5.45291504 296.91158447 5.55426758 296.0692627 5.65869141 295.20141602 C6 293 6 293 7 290 C7.10984314 287.03109676 7.16408078 284.08650768 7.16796875 281.1171875 C7.17129715 280.22951691 7.17462555 279.34184631 7.17805481 278.42727661 C7.18312376 276.53925086 7.18546314 274.65121614 7.18530273 272.76318359 C7.1874548 269.93440913 7.20551327 267.10604736 7.22460938 264.27734375 C7.26960868 249.96780016 7.21387443 235.50867465 2 222 C2 221.34 2 220.68 2 220 C1.34 220 0.68 220 0 220 C-0.309375 219.05125 -0.61875 218.1025 -0.9375 217.125 C-4.48927904 208.8431266 -11.73537069 202.9461306 -19 198 C-19 197.34 -19 196.68 -19 196 C-20.546875 195.62875 -20.546875 195.62875 -22.125 195.25 C-24.93223254 194.4655438 -26.35232137 193.74946036 -28.8125 192 C-40.11725706 184.9068191 -56.2245741 187.32667984 -68.6171875 190.08203125 C-73.03400551 191.28059041 -76.96930058 192.85303561 -81 195 C-81.61101562 195.28488281 -82.22203125 195.56976563 -82.8515625 195.86328125 C-87.35903982 198.11701991 -90.19690335 201.20088359 -93.37890625 205.0703125 C-95 207 -95 207 -97.5625 209.3125 C-101.24844253 213.37648792 -103.59301027 218.0939499 -106 223 C-106.54914063 224.010625 -107.09828125 225.02125 -107.6640625 226.0625 C-109.87651282 231.33414088 -109.35553667 237.01236804 -109.25 242.625 C-109.23904297 243.79998047 -109.22808594 244.97496094 -109.21679688 246.18554688 C-109.13462165 252.60593296 -108.82678051 258.94931024 -108.23828125 265.34375 C-106.29856824 295.10721528 -106.29856824 295.10721528 -112 308 C-112.41572266 309.17755859 -112.41572266 309.17755859 -112.83984375 310.37890625 C-115.10629327 316.38447526 -118.91779224 320.87815103 -123.07421875 325.71484375 C-125.01741755 327.83949181 -125.01741755 327.83949181 -126 330 C-126.66 330 -127.32 330 -128 330 C-130.46055677 333.69083515 -130.82304175 337.71509191 -130 342 C-127.61273656 345.37025426 -126.15029081 346.72493046 -122.125 347.6875 C-112.70238227 345.6145241 -106.92898998 334.59644337 -102 327 C-99.94428487 323.75468322 -98.44445347 320.55760393 -97 317 C-96.63299484 316.12127228 -96.63299484 316.12127228 -96.25857544 315.22479248 C-89.7966401 299.13628118 -90.40253305 283.01083227 -90.82116699 266.01977539 C-90.96385463 260.16925872 -91.07273715 254.31874241 -91.14587784 248.46695518 C-91.17878412 246.44990578 -91.23865639 244.43335292 -91.29928589 242.41694641 C-91.4172251 235.0046812 -90.82508534 229.44069657 -87 223 C-86.34 223 -85.68 223 -85 223 C-84.79375 222.46375 -84.5875 221.9275 -84.375 221.375 C-82.46749574 218.08021991 -79.95180616 215.40636372 -77 213 C-76.34 213 -75.68 213 -75 213 C-75 212.34 -75 211.68 -75 211 C-67.56513453 205.79559417 -60.44783557 205.53080119 -51.625 205.5625 C-50.56667969 205.56507813 -49.50835937 205.56765625 -48.41796875 205.5703125 C-43.41992774 205.66581647 -39.60824643 205.92135356 -35 208 C-35 208.66 -35 209.32 -35 210 C-34.278125 210.268125 -33.55625 210.53625 -32.8125 210.8125 C-28.09865929 212.8027883 -24.38152362 215.11750992 -21 219 C-21 219.66 -21 220.32 -21 221 C-20.38125 221.2475 -19.7625 221.495 -19.125 221.75 C-16.58469272 223.2442984 -15.97135817 224.24781851 -15 227 C-15 228.32 -15 229.64 -15 231 C-14.34 231 -13.68 231 -13 231 C-10.58445812 241.95981054 -9.49739036 252.3486828 -9.625 263.5625 C-9.62965271 264.29812164 -9.63430542 265.03374329 -9.63909912 265.79165649 C-9.80182636 287.88530608 -12.99212527 308.9763758 -20 330 C-20.66 330 -21.32 330 -22 330 C-22.144375 330.9075 -22.28875 331.815 -22.4375 332.75 C-22.86409473 335.21476956 -23.35074221 337.58847107 -24 340 C-24.66 340 -25.32 340 -26 340 C-26.25910156 340.86625 -26.51820313 341.7325 -26.78515625 342.625 C-28.01984325 346.05512723 -29.55201941 348.88591593 -31.4375 352 C-33.80659016 355.92972191 -35.99176708 359.87298923 -38 364 C-38.66 364 -39.32 364 -40 364 C-40.33 365.32 -40.66 366.64 -41 368 C-41.66 368 -42.32 368 -43 368 C-43.24878906 368.72058594 -43.49757813 369.44117188 -43.75390625 370.18359375 C-51.25415648 387.13556997 -71.23642876 402.80947593 -85.625 413.6875 C-86.32455811 414.21730469 -87.02411621 414.74710937 -87.74487305 415.29296875 C-92.74653074 419 -92.74653074 419 -95 419 C-95 419.66 -95 420.32 -95 421 C-99.25730658 424.82789525 -104.17051954 428 -110 428 C-110.33 428.99 -110.66 429.98 -111 431 C-113.06640625 431.94921875 -113.06640625 431.94921875 -115.5625 432.6875 C-116.38878906 432.93886719 -117.21507812 433.19023437 -118.06640625 433.44921875 C-119.02353516 433.72185547 -119.02353516 433.72185547 -120 434 C-120 434.66 -120 435.32 -120 436 C-125.47454536 437.30716095 -129.0713356 437.38290401 -134.0625 434.5625 C-135.38903532 433.7302975 -136.70699541 432.8834003 -138 432 C-138 431.34 -138 430.68 -138 430 C-139.2684375 429.6596875 -139.2684375 429.6596875 -140.5625 429.3125 C-144.67404851 427.74263602 -147.50393484 425.65700952 -151 423 C-150.67 422.01 -150.34 421.02 -150 420 C-149.01 420 -148.02 420 -147 420 C-147 419.34 -147 418.68 -147 418 C-146.35417969 417.76667969 -145.70835937 417.53335937 -145.04296875 417.29296875 C-125.87157769 409.8709391 -104.63445359 397.23466516 -90.35546875 382.27734375 C-89 381 -89 381 -87 381 C-87 380.34 -87 379.68 -87 379 C-86.34 379 -85.68 379 -85 379 C-85 378.34 -85 377.68 -85 377 C-84.34 377 -83.68 377 -83 377 C-82.73678955 376.40703125 -82.4735791 375.8140625 -82.20239258 375.203125 C-80.94790985 372.90455603 -79.67010954 371.5260994 -77.76171875 369.75 C-74.01755678 366.11153958 -70.9040763 362.1971465 -67.8125 358 C-67.30525391 357.32710938 -66.79800781 356.65421875 -66.27539062 355.9609375 C-63.17292793 351.79212901 -60.48885498 347.5619108 -58 343 C-57.34 343 -56.68 343 -56 343 C-55.72414063 342.14148438 -55.44828125 341.28296875 -55.1640625 340.3984375 C-54.02542236 337.07421963 -52.74150269 333.86145373 -51.375 330.625 C-50.92898438 329.56539063 -50.48296875 328.50578125 -50.0234375 327.4140625 C-49.68570313 326.61742187 -49.34796875 325.82078125 -49 325 C-48.34 325 -47.68 325 -47 325 C-46.89115479 324.42096924 -46.78230957 323.84193848 -46.67016602 323.24536133 C-45.33236443 316.32713292 -43.67907027 309.51394696 -41.9375 302.6875 C-41.40386561 300.58751431 -40.87127484 298.48726309 -40.33984375 296.38671875 C-39.98974243 295.01326294 -39.98974243 295.01326294 -39.63256836 293.61206055 C-38.61696852 289.41835052 -37.87455489 285.53657619 -37.88647461 281.2097168 C-37.88655014 280.28913986 -37.88662567 279.36856293 -37.88670349 278.42008972 C-37.89186478 277.4397023 -37.89702606 276.45931488 -37.90234375 275.44921875 C-37.9037587 274.43527542 -37.90517365 273.42133209 -37.90663147 272.37666321 C-37.91221672 269.14691179 -37.92476655 265.91723038 -37.9375 262.6875 C-37.9425169 260.49414163 -37.94707948 258.30078217 -37.95117188 256.10742188 C-37.96218132 250.73825747 -37.9789048 245.36913374 -38 240 C-38.66 240 -39.32 240 -40 240 C-40.391875 239.05125 -40.78375 238.1025 -41.1875 237.125 C-43.19793856 233.65872662 -44.22699642 233.0197307 -48 232 C-48 231.34 -48 230.68 -48 230 C-49.60568666 230.28317926 -51.20952047 230.57687791 -52.8125 230.875 C-54.15248047 231.11863281 -54.15248047 231.11863281 -55.51953125 231.3671875 C-58.22727846 231.91188449 -58.22727846 231.91188449 -61 234 C-61.33 234.99 -61.66 235.98 -62 237 C-62.66 237 -63.32 237 -64 237 C-63.95581655 242.74803888 -63.88595059 248.49498252 -63.79248047 254.24243164 C-63.76429056 256.19676996 -63.74306617 258.15122186 -63.72900391 260.10571289 C-63.70754693 262.91872223 -63.66088305 265.73036871 -63.609375 268.54296875 C-63.60753204 269.84949654 -63.60753204 269.84949654 -63.60565186 271.18241882 C-63.5066725 275.3008547 -63.33355673 277.47195364 -61.08691406 281.02856445 C-59.15704884 283.04194074 -59.15704884 283.04194074 -57 284 C-56.83451023 289.51632578 -57.27224805 294.39515416 -58.6875 299.75 C-58.86756592 300.44536865 -59.04763184 301.1407373 -59.2331543 301.85717773 C-60.9316639 308.16727515 -63.25945433 314.068408 -66 320 C-66.58994864 321.29943155 -67.17978618 322.59891355 -67.76953125 323.8984375 C-73.4354516 336.26652761 -73.4354516 336.26652761 -76 340 C-76.66 340 -77.32 340 -78 340 C-78.061875 340.721875 -78.12375 341.44375 -78.1875 342.1875 C-79.25734589 345.89081269 -81.25265403 347.30682705 -84 350 C-86.24078934 352.60197879 -88.37525655 355.29211169 -90.51367188 357.97851562 C-91.6333702 359.35463341 -92.81237816 360.68205506 -94 362 C-94.66 362 -95.32 362 -96 362 C-96 362.66 -96 363.32 -96 364 C-96.66 364 -97.32 364 -98 364 C-98 364.66 -98 365.32 -98 366 C-101.46868617 369.22970189 -105.26749777 372.08192491 -109 375 C-110.40572266 376.10988281 -110.40572266 376.10988281 -111.83984375 377.2421875 C-118.15154144 382.1079956 -124.66831126 386.42341195 -131.48120117 390.55053711 C-134.38747197 392.31857605 -137.04445669 394.03685226 -139.671875 396.21484375 C-142.14048391 398.10772004 -143.78128728 398.70709623 -146.8125 399.25 C-147.60269531 399.39953125 -148.39289063 399.5490625 -149.20703125 399.703125 C-149.79871094 399.80109375 -150.39039063 399.8990625 -151 400 C-151 400.66 -151 401.32 -151 402 C-151.68707031 402.26554687 -152.37414062 402.53109375 -153.08203125 402.8046875 C-154.43361328 403.33449219 -154.43361328 403.33449219 -155.8125 403.875 C-156.70582031 404.22304688 -157.59914062 404.57109375 -158.51953125 404.9296875 C-161.17711591 405.98832155 -161.17711591 405.98832155 -164 408 C-164.99 408 -165.98 408 -167 408 C-168.76171875 406.1640625 -168.76171875 406.1640625 -170.6875 403.625 C-171.72970703 402.26761719 -171.72970703 402.26761719 -172.79296875 400.8828125 C-173.52128906 399.93148438 -174.24960938 398.98015625 -175 398 C-177.1710427 395.33872186 -179.34908892 392.683415 -181.53125 390.03125 C-183 388 -183 388 -183 386 C-181.42412109 385.43732422 -181.42412109 385.43732422 -179.81640625 384.86328125 C-172.83319469 382.33096266 -166.07657619 379.8519883 -159.69921875 375.98046875 C-158 375 -158 375 -155 374 C-155.23630896 367.9149919 -155.23630896 367.9149919 -157.625 362.4375 C-162.14331709 359.70272913 -167.07115815 360.80512925 -172 362 C-172 362.66 -172 363.32 -172 364 C-174.74970636 364.81350483 -177.49974893 365.62584054 -180.25 366.4375 C-181.41595703 366.78264648 -181.41595703 366.78264648 -182.60546875 367.13476562 C-183.35957031 367.35712891 -184.11367187 367.57949219 -184.890625 367.80859375 C-185.58188477 368.01282959 -186.27314453 368.21706543 -186.98535156 368.42749023 C-188.98114721 368.99464254 -190.98449654 369.50798004 -193 370 C-196 365.375 -196 365.375 -196 362 C-196.66 362 -197.32 362 -198 362 C-198.48937429 360.67037928 -198.96583581 359.33600575 -199.4375 358 C-199.83775391 356.88625 -199.83775391 356.88625 -200.24609375 355.75 C-201.22563333 352.17696444 -201.59815812 348.68290037 -202 345 C-200.72125 344.69707031 -199.4425 344.39414062 -198.125 344.08203125 C-196.41648313 343.65959576 -194.70815987 343.23637671 -193 342.8125 C-191.74123047 342.51762695 -191.74123047 342.51762695 -190.45703125 342.21679688 C-184.51625517 340.72008972 -180.03966881 338.43115649 -175 335 C-173.52932698 334.19266425 -172.05188389 333.39727313 -170.5625 332.625 C-155.51913484 324.27619081 -145.86555143 311.01378858 -139.8125 295.125 C-139.57450684 294.50157715 -139.33651367 293.8781543 -139.09130859 293.23583984 C-138.34049658 291.1717645 -137.66370636 289.09370015 -137 287 C-136.72494629 286.19328857 -136.44989258 285.38657715 -136.16650391 284.55541992 C-133.42001428 275.40342864 -133.71379314 266.37019207 -133.7482605 256.91461182 C-133.75812376 240.74266254 -133.6345667 225.66028685 -126 211 C-125.6807959 210.36626465 -125.3615918 209.7325293 -125.03271484 209.07958984 C-120.88106408 201.07026664 -115.33504206 194.36698345 -109 188 C-108.26394531 187.22914063 -107.52789062 186.45828125 -106.76953125 185.6640625 C-99.81788674 178.84050524 -91.79141744 174.92601167 -83 171 C-82.37794678 170.71954834 -81.75589355 170.43909668 -81.11499023 170.15014648 C-66.20561547 163.56936028 -47.8799599 164.6415514 -32.1875 167.75 C-31.39480713 167.90678223 -30.60211426 168.06356445 -29.78540039 168.22509766 C-22.19582509 169.9020232 -15.33645847 172.99538999 -8.6875 177 C-7.88699219 177.474375 -7.08648437 177.94875 -6.26171875 178.4375 C-3.87341523 180.08745062 -2.01462146 181.91646795 0 184 C1.24312287 185.04986427 2.4932158 186.0915287 3.75 187.125 C10.79918714 193.26673581 16.31568753 200.40327089 20 209 C20 209.66 20 210.32 20 211 C20.66 211 21.32 211 22 211 C22.67031719 212.9570868 23.33614683 214.91571113 24 216.875 C24.37125 217.96554687 24.7425 219.05609375 25.125 220.1796875 C26 223 26 223 26 225 C29.63 225.66 33.26 226.32 37 227 C37 226.34 37 225.68 37 225 C37.65484375 224.42765625 38.3096875 223.8553125 38.984375 223.265625 C41.62999873 220.29186189 41.42010906 218.66250839 41.25 214.75 C41.21390625 213.67234375 41.1778125 212.5946875 41.140625 211.484375 C41.09421875 210.66453125 41.0478125 209.8446875 41 209 C40.34 209 39.68 209 39 209 C38.49384702 207.73160474 37.99530901 206.46016898 37.5 205.1875 C37.08234375 204.12595703 37.08234375 204.12595703 36.65625 203.04296875 C36 201 36 201 36 198 C35.01 197.67 34.02 197.34 33 197 C31.35179805 194.39757586 31 193.13751221 31 190 C30.34 190 29.68 190 29 190 C28.06509487 188.5976423 27.13530898 187.19160586 26.23144531 185.76904297 C23.97824959 182.53219597 21.16865297 179.83154763 18.375 177.0625 C17.75979492 176.44930908 17.14458984 175.83611816 16.51074219 175.2043457 C11.22983547 170.03809206 5.64724289 165.32362145 -1 162 C-1 161.34 -1 160.68 -1 160 C-1.56976563 159.87496094 -2.13953125 159.74992188 -2.7265625 159.62109375 C-5.08953898 158.97553832 -7.15530083 158.0944654 -9.375 157.0625 C-18.06421443 153.15803273 -24.23909171 151.88418039 -33.5 155 C-47.08770534 159.05432502 -63.63315312 158.82931242 -77 154 C-77 153.34 -77 152.68 -77 152 C-81.60500468 151.81941158 -84.80071804 152.13365246 -89 154 C-89.99 154 -90.98 154 -92 154 C-92 154.66 -92 155.32 -92 156 C-94.90600261 157.25664978 -96.79604584 158 -100 158 C-100 158.66 -100 159.32 -100 160 C-100.99 160 -101.98 160 -103 160 C-103 160.66 -103 161.32 -103 162 C-104.65862554 162.94822726 -106.35501054 163.83038078 -108.0625 164.6875 C-113.79975203 167.9270397 -118.24230143 171.76670074 -122.875 176.4375 C-123.4925415 177.05778076 -124.11008301 177.67806152 -124.74633789 178.31713867 C-133.10748001 186.94693907 -139.6257367 196.34345406 -143 208 C-143.66 208 -144.32 208 -145 208 C-145.99 213.61 -146.98 219.22 -148 225 C-148.66 225 -149.32 225 -150 225 C-150.0093457 226.30445068 -150.01869141 227.60890137 -150.02832031 228.95288086 C-150.06873105 233.8754064 -150.13462117 238.79733985 -150.20751953 243.71948242 C-150.23543703 245.83431286 -150.25679393 247.94924197 -150.27099609 250.06420898 C-150.39920136 268.09414347 -151.79898632 284.08224633 -161 300 C-161.66 300 -162.32 300 -163 300 C-163.2578125 300.73347656 -163.515625 301.46695312 -163.78125 302.22265625 C-167.43490058 310.54876382 -174.96267631 316.19048784 -183 320 C-183.66 320 -184.32 320 -185 320 C-185 320.66 -185 321.32 -185 322 C-188.3 322.66 -191.6 323.32 -195 324 C-195 324.66 -195 325.32 -195 326 C-196.60256108 326.50512244 -198.20711792 327.00391627 -199.8125 327.5 C-201.15248047 327.91765625 -201.15248047 327.91765625 -202.51953125 328.34375 C-205 329 -205 329 -208 329 C-209.46051903 319.57182803 -210.29032827 310.56470344 -210 301 C-209.24976563 300.85304688 -208.49953125 300.70609375 -207.7265625 300.5546875 C-196.67045705 298.13181301 -187.35998119 293.72598796 -181 284 C-177.79662534 277.03768385 -176.90923734 269.76719569 -176.75390625 262.16015625 C-176.72103516 260.84853516 -176.68816406 259.53691406 -176.65429688 258.18554688 C-176.60746559 256.13928647 -176.56309546 254.09303844 -176.52319336 252.04663086 C-176.25582715 238.92007087 -175.19987445 226.02880322 -171.6875 213.3125 C-171.46803711 212.50707764 -171.24857422 211.70165527 -171.02246094 210.87182617 C-166.26713686 193.91355136 -158.13100875 178.76671093 -146.3828125 165.671875 C-144.02588902 163.12317375 -144.02588902 163.12317375 -142.3046875 160.640625 C-141.87414062 160.09921875 -141.44359375 159.5578125 -141 159 C-140.34 159 -139.68 159 -139 159 C-139 158.34 -139 157.68 -139 157 C-138.34 157 -137.68 157 -137 157 C-137 156.34 -137 155.68 -137 155 C-134.8828125 153.0546875 -134.8828125 153.0546875 -132.125 150.875 C-130.76761719 149.78832031 -130.76761719 149.78832031 -129.3828125 148.6796875 C-127 147 -127 147 -125 147 C-125 146.34 -125 145.68 -125 145 C-119.25 142 -119.25 142 -117 142 C-117 141.34 -117 140.68 -117 140 C-113.7 138.35 -110.4 136.7 -107 135 C-107 134.01 -107 133.02 -107 132 C-107.66 132 -108.32 132 -109 132 C-110.5078125 129.8828125 -110.5078125 129.8828125 -112.125 127.125 C-112.66382813 126.22007812 -113.20265625 125.31515625 -113.7578125 124.3828125 C-115 122 -115 122 -115 120 C-116.32 120 -117.64 120 -119 120 C-119 120.66 -119 121.32 -119 122 C-120.134375 122.268125 -121.26875 122.53625 -122.4375 122.8125 C-123.613125 123.204375 -124.78875 123.59625 -126 124 C-126.33 124.99 -126.66 125.98 -127 127 C-128.65399808 127.69750453 -130.32369242 128.35796019 -132 129 C-139.67798227 134.0794451 -146.42537324 140.14771044 -152.9375 146.625 C-153.85861572 147.5380188 -153.85861572 147.5380188 -154.79833984 148.46948242 C-161.24880231 155.02103554 -166.21584865 162.08420297 -170.703125 170.09375 C-171.13109375 170.7228125 -171.5590625 171.351875 -172 172 C-172.66 172 -173.32 172 -174 172 C-174.26167969 172.68578125 -174.52335937 173.3715625 -174.79296875 174.078125 C-176.15749207 177.38124295 -177.73385418 180.54370383 -179.3125 183.75 C-183.19227627 191.95048197 -185.8161308 200.20861617 -188 209 C-188.22461914 209.86753906 -188.44923828 210.73507813 -188.68066406 211.62890625 C-192.5282539 226.84802379 -193.6180742 241.58452858 -193.63574219 257.20849609 C-193.64098907 257.93816589 -193.64623596 258.66783569 -193.65164185 259.4196167 C-193.66330282 261.40943096 -193.65580512 263.39933133 -193.64697266 265.38916016 C-194.30009852 272.06947238 -196.85613508 276.59097293 -202 281 C-205.50492557 283.4790937 -206.58618039 284 -211 284 C-211.04635632 271.9779467 -211.08188602 259.9559147 -211.10362434 247.93379021 C-211.11405804 242.35133582 -211.12820981 236.76894261 -211.15087891 231.18652344 C-211.17262187 225.79840621 -211.18457174 220.41034781 -211.18975449 215.02219009 C-211.19344761 212.9673177 -211.20065935 210.91244849 -211.21146011 208.85760117 C-211.22599421 205.97775076 -211.22797712 203.09814294 -211.22705078 200.21826172 C-211.23424133 199.37021469 -211.24143188 198.52216766 -211.24884033 197.64842224 C-211.23278827 193.03151468 -210.76761022 189.34611156 -209 185 C-208.34 185 -207.68 185 -207 185 C-206.86722656 184.37351563 -206.73445312 183.74703125 -206.59765625 183.1015625 C-206.42105469 182.28429687 -206.24445313 181.46703125 -206.0625 180.625 C-205.88847656 179.81289062 -205.71445313 179.00078125 -205.53515625 178.1640625 C-205 176 -205 176 -204 174 C-203.34 174 -202.68 174 -202 174 C-201.938125 173.195625 -201.87625 172.39125 -201.8125 171.5625 C-197.89049281 154.36600693 -181.62586215 138.51297613 -170 126 C-169.46117187 125.4121875 -168.92234375 124.824375 -168.3671875 124.21875 C-167 123 -167 123 -165 123 C-165 122.34 -165 121.68 -165 121 C-163.58227539 119.65893555 -163.58227539 119.65893555 -161.59765625 118.13671875 C-160.87126953 117.57919922 -160.14488281 117.02167969 -159.39648438 116.44726562 C-158.62626953 115.86654297 -157.85605469 115.28582031 -157.0625 114.6875 C-156.32708984 114.11837891 -155.59167969 113.54925781 -154.83398438 112.96289062 C-141.73695824 103 -141.73695824 103 -137 103 C-137 102.34 -137 101.68 -137 101 C-135.421924 100.15675328 -133.8372958 99.32576082 -132.25 98.5 C-131.36828125 98.0359375 -130.4865625 97.571875 -129.578125 97.09375 C-127 96 -127 96 -123 96 C-123.02320313 95.07058594 -123.04640625 94.14117187 -123.0703125 93.18359375 C-123.24956063 80.90509666 -123.24956063 80.90509666 -121 75 C-121.7734375 75.32613281 -122.546875 75.65226562 -123.34375 75.98828125 C-140.0560472 83 -140.0560472 83 -143 83 C-143 83.66 -143 84.32 -143 85 C-144.65 85.33 -146.3 85.66 -148 86 C-148 86.66 -148 87.32 -148 88 C-148.54527344 88.27972656 -149.09054688 88.55945313 -149.65234375 88.84765625 C-155.62624643 92.02352588 -160.7876999 95.70271183 -166 100 C-167.45019531 101.17175781 -167.45019531 101.17175781 -168.9296875 102.3671875 C-184.29020925 114.93467028 -197.20812387 128.6927274 -207.90625 145.453125 C-208.2671875 145.96359375 -208.628125 146.4740625 -209 147 C-209.33 147 -209.66 147 -210 147 C-210.05460454 144.81278471 -210.0930633 142.62516369 -210.125 140.4375 C-210.14820313 139.21933594 -210.17140625 138.00117188 -210.1953125 136.74609375 C-209.99207595 132.84801664 -209.14013283 129.72195537 -208 126 C-207.51648479 123.41771 -207.0593573 120.84005651 -206.625 118.25 C-205.59345178 112.45263222 -204.22138625 107.07386464 -202.01953125 101.58984375 C-200.95053883 98.97928705 -200.95053883 98.97928705 -200.13671875 96.12890625 C-198.02216254 89.26358499 -195.19371642 84.84687856 -189 81 C-186.75 80.3203125 -186.75 80.3203125 -185 80 C-185 79.34 -185 78.68 -185 78 C-182.82034369 76.42646729 -180.65258833 74.9808372 -178.375 73.5625 C-177.75753906 73.16740234 -177.14007813 72.77230469 -176.50390625 72.36523438 C-166.44238769 66 -166.44238769 66 -163 66 C-163 65.34 -163 64.68 -163 64 C-156.61196428 60.70719808 -150.24810113 57.56672421 -143.53515625 54.9921875 C-141.77829545 54.30460253 -140.03651557 53.57768897 -138.30859375 52.8203125 C-132.35064383 50.21016301 -126.34781631 48.05883717 -120.125 46.1875 C-119.41142334 45.96843994 -118.69784668 45.74937988 -117.96264648 45.52368164 C-113.86772385 44.33111173 -110.26102659 43.76624462 -106 44 C-105.77828125 43.27941406 -105.5565625 42.55882812 -105.328125 41.81640625 C-103.68310834 38.32800327 -101.63369862 36.4863429 -98.75 33.9375 C-97.81671875 33.10089844 -96.8834375 32.26429687 -95.921875 31.40234375 C-91.42907509 27.7083973 -87.07267584 24.81128275 -81.625 22.75 C-80.75101563 22.41484375 -79.87703125 22.0796875 -78.9765625 21.734375 C-78.32429687 21.49203125 -77.67203125 21.2496875 -77 21 C-83.03694876 20.84734153 -88.67326182 21.39249084 -94.625 22.375 C-95.44484375 22.50132813 -96.2646875 22.62765625 -97.109375 22.7578125 C-101.60300607 23.48026123 -105.68051751 24.54536708 -110 26 C-111.51555111 26.2978218 -113.03421074 26.58000511 -114.5546875 26.8515625 C-120.95366539 28.08056874 -126.98950358 30.21451449 -133.125 32.375 C-134.81689453 32.95507812 -134.81689453 32.95507812 -136.54296875 33.546875 C-142.62311865 35.66603836 -148.28089598 38.05538123 -154 41 C-157.5 41.75 -157.5 41.75 -160 42 C-160 42.66 -160 43.32 -160 44 C-161.60032137 44.84069415 -163.20541171 45.67231505 -164.8125 46.5 C-165.70582031 46.9640625 -166.59914062 47.428125 -167.51953125 47.90625 C-170 49 -170 49 -173 49 C-166.31168148 41.10735403 -159.27950628 33.26011451 -151 27 C-150.34 27 -149.68 27 -149 27 C-149 26.34 -149 25.68 -149 25 C-147.3203125 23.7109375 -147.3203125 23.7109375 -145.125 22.375 C-144.40570313 21.92898437 -143.68640625 21.48296875 -142.9453125 21.0234375 C-141 20 -141 20 -139 20 C-139 19.34 -139 18.68 -139 18 C-137.02 17.34 -135.04 16.68 -133 16 C-133 15.34 -133 14.68 -133 14 C-126.24686435 9.16937864 -118.79240227 5.91108051 -111.0078125 3.140625 C-107.94193084 2.04931351 -107.94193084 2.04931351 -104.984375 0.40234375 C-101.85687773 -1.06725248 -99.55250754 -1.47850564 -96.125 -1.6875 C-95.15820312 -1.75324219 -94.19140625 -1.81898437 -93.1953125 -1.88671875 C-92.47085938 -1.92410156 -91.74640625 -1.96148437 -91 -2 C-91 -2.66 -91 -3.32 -91 -4 C-61.23444313 -11.43309335 -29.10765579 -9.70255193 0 0 Z " fill="#46485D" transform="translate(365,39)"/>
<path d="M0 0 C3.3 0 6.6 0 10 0 C10.495 1.98 10.495 1.98 11 4 C11.99 4.33 12.98 4.66 14 5 C14.15213564 12.74103616 14.25721038 20.48168691 14.32958984 28.22387695 C14.3597624 30.85748705 14.40070617 33.49099666 14.45263672 36.12426758 C14.52542401 39.90992007 14.55945348 43.69424421 14.5859375 47.48046875 C14.61690521 48.65772018 14.64787292 49.83497162 14.67977905 51.04789734 C14.68295546 58.76321259 14.68295546 58.76321259 12.97067261 61.86404419 C9.48564508 65.323392 5.49361551 65.59263249 0.86679077 65.64343262 C-0.4787941 65.61883972 -0.4787941 65.61883972 -1.8515625 65.59375 C-2.78801605 65.59379028 -3.7244696 65.59383057 -4.68930054 65.59387207 C-6.66109968 65.5885285 -8.63289912 65.57099568 -10.60449219 65.54199219 C-13.62240573 65.50003607 -16.63809314 65.50093519 -19.65625 65.5078125 C-21.57553634 65.49732274 -23.49481119 65.48438579 -25.4140625 65.46875 C-26.31516754 65.46854858 -27.21627258 65.46834717 -28.14468384 65.46813965 C-34.3364041 65.35102243 -34.3364041 65.35102243 -37.53662109 63.65820312 C-39.76054228 61.13820435 -40.00807894 58.92728952 -40.375 55.625 C-40 52 -40 52 -37.9309082 49.30395508 C-34.24804227 46.4088942 -32.36852059 46.41628558 -27.73046875 46.51171875 C-26.70896477 46.52233086 -26.70896477 46.52233086 -25.66682434 46.53315735 C-23.50590005 46.56099931 -21.34763178 46.62370473 -19.1875 46.6875 C-17.71683448 46.71259668 -16.24612807 46.73540747 -14.77539062 46.75585938 C-11.18274043 46.81078812 -7.59162972 46.89698353 -4 47 C-4.01571045 45.11510864 -4.01571045 45.11510864 -4.03173828 43.19213867 C-4.06790817 38.53494103 -4.09088953 33.87775584 -4.10986328 29.22045898 C-4.11992773 27.20383619 -4.13358047 25.18722801 -4.15087891 23.1706543 C-4.17510769 20.27388911 -4.18647859 17.37731669 -4.1953125 14.48046875 C-4.20563507 13.57725388 -4.21595764 12.674039 -4.22659302 11.74345398 C-4.22681961 10.4824865 -4.22681961 10.4824865 -4.22705078 9.19604492 C-4.231492 8.45658127 -4.23593323 7.71711761 -4.24050903 6.95524597 C-4 5 -4 5 -2 2 C-1.34 2 -0.68 2 0 2 C0 1.34 0 0.68 0 0 Z " fill="#F2D187" transform="translate(308,73)"/>
<path d="M0 0 C5.22739503 0.62408696 6.84430155 2.84810359 10.078125 6.76953125 C11.10406678 7.95321158 12.13010535 9.13680804 13.15625 10.3203125 C13.5987207 10.84923096 14.04119141 11.37814941 14.49707031 11.9230957 C15.83200566 13.51322757 15.83200566 13.51322757 17.49511719 15.02807617 C18.828125 16.45703125 18.828125 16.45703125 18.828125 18.45703125 C19.446875 18.76640625 20.065625 19.07578125 20.703125 19.39453125 C22.078125 20.08203125 23.453125 20.76953125 24.828125 21.45703125 C24.828125 22.44703125 24.828125 23.43703125 24.828125 24.45703125 C23.178125 25.11703125 21.528125 25.77703125 19.828125 26.45703125 C19.828125 27.11703125 19.828125 27.77703125 19.828125 28.45703125 C18.53899013 29.12858058 17.24672296 29.79411984 15.953125 30.45703125 C15.23382813 30.82828125 14.51453125 31.19953125 13.7734375 31.58203125 C11.828125 32.45703125 11.828125 32.45703125 9.828125 32.45703125 C9.828125 33.11703125 9.828125 33.77703125 9.828125 34.45703125 C2.62191817 38.17157085 -4.56533011 41.64260964 -12.171875 44.45703125 C-13.20828125 44.85535156 -13.20828125 44.85535156 -14.265625 45.26171875 C-20.22967948 47.42035041 -26.34558276 48.57620575 -32.56640625 49.76171875 C-35.51670679 50.33068245 -38.43500103 50.95814926 -41.359375 51.64453125 C-45.171875 52.45703125 -45.171875 52.45703125 -49.171875 52.45703125 C-49.171875 51.79703125 -49.171875 51.13703125 -49.171875 50.45703125 C-47.521875 49.79703125 -45.871875 49.13703125 -44.171875 48.45703125 C-44.171875 47.79703125 -44.171875 47.13703125 -44.171875 46.45703125 C-42.87890625 45.1875 -42.87890625 45.1875 -40.984375 43.64453125 C-31.88502474 35.88426977 -23.58846561 27.33683702 -16.171875 17.95703125 C-14.28936662 15.60389577 -12.32334182 13.37364475 -10.296875 11.14453125 C-7.62036687 8.13345961 -5.80139599 5.16871795 -4.171875 1.45703125 C-3.171875 0.45703125 -3.171875 0.45703125 0 0 Z " fill="#434556" transform="translate(380.171875,441.54296875)"/>
<path d="M0 0 C4.8058074 2.29842963 9.10699982 4.83028376 11 10 C11.7121481 15.01815989 11.52912753 18.94174495 9.25 23.5 C7.19573231 25.78251966 5.85898185 26.97893505 3 28 C3 28.66 3 29.32 3 30 C0.22947819 30.92350727 -1.56688758 31.16329585 -4.4375 31.1875 C-5.19933594 31.20167969 -5.96117187 31.21585938 -6.74609375 31.23046875 C-11.59087721 30.73507495 -14.77886279 27.9776338 -17.78125 24.32421875 C-20.3232503 19.47649383 -20.00583468 14.26078009 -19 9 C-15.04440622 1.45647981 -8.26305966 -1.52629764 0 0 Z " fill="#41414F" transform="translate(241,549)"/>
<path d="M0 0 C4.59416591 2.26141397 8.14975622 4.72463433 11 9 C11.265625 11.5234375 11.265625 11.5234375 11.25 14.375 C11.25515625 15.31085937 11.2603125 16.24671875 11.265625 17.2109375 C10.90309457 21.01750701 10.16274153 23.84580804 7.40625 26.58203125 C1.91128038 30.1289891 -2.53020165 30.81711986 -9 30 C-12.87711021 29.13841995 -15.57787254 27.28386545 -18.0390625 24.1015625 C-20.23020567 19.30955019 -19.90471618 14.08665599 -19 9 C-15.06530082 1.45954755 -8.24702211 -1.53646749 0 0 Z " fill="#404050" transform="translate(393,549)"/>
<path d="M0 0 C1.37478516 0.01740234 1.37478516 0.01740234 2.77734375 0.03515625 C3.69644531 0.04417969 4.61554688 0.05320312 5.5625 0.0625 C6.27277344 0.07410156 6.98304688 0.08570313 7.71484375 0.09765625 C7.71484375 0.42765625 7.71484375 0.75765625 7.71484375 1.09765625 C4.74484375 1.09765625 1.77484375 1.09765625 -1.28515625 1.09765625 C-1.28515625 6.37765625 -1.28515625 11.65765625 -1.28515625 17.09765625 C38.97484375 17.09765625 79.23484375 17.09765625 120.71484375 17.09765625 C121.20984375 18.08765625 121.20984375 18.08765625 121.71484375 19.09765625 C80.46484375 19.09765625 39.21484375 19.09765625 -3.28515625 19.09765625 C-3.28515625 0.14039129 -3.28515625 0.14039129 0 0 Z " fill="#80715E" transform="translate(324.28515625,511.90234375)"/>
<path d="M0 0 C3.3 0 6.6 0 10 0 C10.33 0.66 10.66 1.32 11 2 C10.39671875 1.94199219 9.7934375 1.88398437 9.171875 1.82421875 C7.97304688 1.75654297 7.97304688 1.75654297 6.75 1.6875 C5.96109375 1.62949219 5.1721875 1.57148437 4.359375 1.51171875 C1.82299861 1.82356566 1.82299861 1.82356566 -0.109375 3.96679688 C-2.66445493 8.06601085 -2.60233566 11.27977633 -2.609375 16.01953125 C-2.62591125 16.87810226 -2.64244751 17.73667328 -2.65948486 18.6212616 C-2.70790033 21.35174763 -2.72932106 24.081677 -2.75 26.8125 C-2.77816514 28.6686477 -2.80809334 30.52476954 -2.83984375 32.38085938 C-2.91365738 36.92052707 -2.96327128 41.45988693 -3 46 C-3.33 46 -3.66 46 -4 46 C-4.0494009 40.21591441 -4.08572 34.43195136 -4.10986328 28.64770508 C-4.11992707 26.67958436 -4.13357934 24.71147862 -4.15087891 22.7434082 C-4.17511059 19.91614082 -4.18647923 17.08907095 -4.1953125 14.26171875 C-4.20563507 13.38037766 -4.21595764 12.49903656 -4.22659302 11.59098816 C-4.22674408 10.77036392 -4.22689514 9.94973969 -4.22705078 9.10424805 C-4.231492 8.38254929 -4.23593323 7.66085052 -4.24050903 6.9172821 C-4 5 -4 5 -2 2 C-1.34 2 -0.68 2 0 2 C0 1.34 0 0.68 0 0 Z " fill="#E5C784" transform="translate(308,73)"/>
<path d="M0 0 C8.73390265 0.60785403 17.3459967 1.68141666 26 3 C26 3.33 26 3.66 26 4 C24.741875 4.020625 23.48375 4.04125 22.1875 4.0625 C21.47980469 4.07410156 20.77210938 4.08570313 20.04296875 4.09765625 C18 4 18 4 15 3 C15 4.65 15 6.3 15 8 C11.45756548 6.63408831 8.07372071 5.09068516 4.6875 3.375 C3.80449219 2.92898437 2.92148437 2.48296875 2.01171875 2.0234375 C1.34785156 1.68570313 0.68398438 1.34796875 0 1 C0 0.67 0 0.34 0 0 Z " fill="#D7B76A" transform="translate(336,59)"/>
<path d="M0 0 C0.33 0.99 0.66 1.98 1 3 C-1.90435842 5.99138207 -4.82545686 8.96585915 -7.75 11.9375 C-8.575 12.78763672 -9.4 13.63777344 -10.25 14.51367188 C-11.04921875 15.32255859 -11.8484375 16.13144531 -12.671875 16.96484375 C-13.4050293 17.7137085 -14.13818359 18.46257324 -14.89355469 19.23413086 C-17.01408941 21.0118114 -18.29633102 21.6126166 -21 22 C-17.88777538 18.18752484 -14.82199278 14.74304555 -11.0625 11.5625 C-6.93395173 8.06238201 -3.45434108 4.15600412 0 0 Z " fill="#5D595F" transform="translate(323,436)"/>
<path d="M0 0 C2.0625 -0.4375 2.0625 -0.4375 5 0 C7.62982691 2.07017366 9.93284133 4.36690452 12 7 C12 7.66 12 8.32 12 9 C7.69235185 7.43358249 3.93828536 5.31663844 0 3 C0 2.01 0 1.02 0 0 Z " fill="#70655D" transform="translate(423,81)"/>
<path d="M0 0 C2 3 2 3 2 5 C1.34 5 0.68 5 0 5 C-0.17015625 5.90363281 -0.3403125 6.80726563 -0.515625 7.73828125 C-0.87914062 9.50751953 -0.87914062 9.50751953 -1.25 11.3125 C-1.48203125 12.48425781 -1.7140625 13.65601563 -1.953125 14.86328125 C-3.08709364 18.26095595 -3.94715113 19.2528117 -7 21 C-4.66666667 14 -2.33333333 7 0 0 Z " fill="#706970" transform="translate(272,343)"/>
<path d="M0 0 C0.66 0.33 1.32 0.66 2 1 C-2.29 5.29 -6.58 9.58 -11 14 C-11.66 13.67 -12.32 13.34 -13 13 C-8.96476648 8.18876004 -4.95532767 3.86757281 0 0 Z " fill="#68605B" transform="translate(272,68)"/>
<path d="M0 0 C0 0.66 0 1.32 0 2 C-1.2375 2.12375 -2.475 2.2475 -3.75 2.375 C-6.8762197 2.75746305 -9.28879237 3.30549523 -12 5 C-12 5.66 -12 6.32 -12 7 C-12.66 7 -13.32 7 -14 7 C-13.70049983 4.1048317 -13.19065168 3.16176506 -10.9375 1.25 C-7.04258936 -0.40740878 -4.21124039 -0.21413087 0 0 Z " fill="#C9B089" transform="translate(317,269)"/>
<path d="M0 0 C1.32 0.33 2.64 0.66 4 1 C2.41856529 2.43958847 0.83477221 3.87658645 -0.75 5.3125 C-1.63171875 6.11300781 -2.5134375 6.91351563 -3.421875 7.73828125 C-5.55449328 9.60916911 -7.70187943 11.34084286 -10 13 C-9.44243814 9.46368301 -8.35846524 8.11730658 -5.5625 5.9375 C-3.08722511 3.98931914 -1.79578076 2.69367114 0 0 Z " fill="#E2C589" transform="translate(277,237)"/>
<path d="M0 0 C0.33 0.66 0.66 1.32 1 2 C-0.61752847 4.17262127 -2.24338637 6.33799958 -3.875 8.5 C-4.33519531 9.12003906 -4.79539063 9.74007812 -5.26953125 10.37890625 C-6.46562174 11.95635892 -7.72856726 13.48261798 -9 15 C-9.66 15 -10.32 15 -11 15 C-9.3718356 11.24269753 -6.98598083 8.383177 -4.375 5.25 C-3.55773437 4.26515625 -2.74046875 3.2803125 -1.8984375 2.265625 C-1.27195313 1.51796875 -0.64546875 0.7703125 0 0 Z " fill="#CEAE69" transform="translate(173,162)"/>
<path d="M0 0 C0.66 0.33 1.32 0.66 2 1 C1.55269531 1.50789063 1.10539063 2.01578125 0.64453125 2.5390625 C0.03996094 3.22742188 -0.56460938 3.91578125 -1.1875 4.625 C-1.82429687 5.34945312 -2.46109375 6.07390625 -3.1171875 6.8203125 C-4.7265641 8.68344972 -6.2760031 10.57707873 -7.8125 12.5 C-8.534375 13.325 -9.25625 14.15 -10 15 C-10.66 15 -11.32 15 -12 15 C-10.38462556 11.10082032 -7.72075127 8.28706228 -4.875 5.25 C-4.40707031 4.74339844 -3.93914062 4.23679687 -3.45703125 3.71484375 C-2.30873459 2.47280859 -1.15491328 1.23588506 0 0 Z " fill="#CCAA66" transform="translate(191,62)"/>
<path d="M0 0 C3.3 0 6.6 0 10 0 C10.33 0.66 10.66 1.32 11 2 C10.39671875 1.94199219 9.7934375 1.88398437 9.171875 1.82421875 C6.70282522 1.68483691 4.45120727 1.65708499 2 2 C-0.83930448 4.62089645 -2.43926002 7.48833505 -4 11 C-4.25 5.375 -4.25 5.375 -2 2 C-1.34 2 -0.68 2 0 2 C0 1.34 0 0.68 0 0 Z " fill="#C8AD74" transform="translate(308,73)"/>
<path d="M0 0 C-1.52941351 3.05882701 -3.94219546 3.68951234 -7 5 C-7.66 4.67 -8.32 4.34 -9 4 C-8.67 3.34 -8.34 2.68 -8 2 C-9.98 2 -11.96 2 -14 2 C-14 1.67 -14 1.34 -14 1 C-9.32798795 -0.20568053 -4.78503708 -0.09382426 0 0 Z " fill="#C5A76D" transform="translate(289,59)"/>
<path d="M0 0 C0 3.60777515 -0.9904432 5.06295544 -3 8 C-3.99 8.495 -3.99 8.495 -5 9 C-5.40729228 11.32156597 -5.74438677 13.6568787 -6 16 C-6.33 16 -6.66 16 -7 16 C-7.36666667 8.66666667 -7.36666667 8.66666667 -5.625 5.5 C-4 4 -4 4 -2 4 C-1.34 2.68 -0.68 1.36 0 0 Z " fill="#BAA177" transform="translate(241,365)"/>
<path d="M0 0 C0 3 0 3 -1.5 4.6875 C-1.995 5.120625 -2.49 5.55375 -3 6 C-2.67 6.66 -2.34 7.32 -2 8 C-4.375 9.5625 -4.375 9.5625 -7 11 C-7.66 10.67 -8.32 10.34 -9 10 C-7.8758824 8.70756532 -6.75067408 7.41607925 -5.625 6.125 C-4.99851563 5.40570313 -4.37203125 4.68640625 -3.7265625 3.9453125 C-2.52573166 2.5923402 -1.2791655 1.2791655 0 0 Z " fill="#77695C" transform="translate(201,78)"/>
<path d="M0 0 C0.33 0.66 0.66 1.32 1 2 C-0.09346881 3.34212062 -1.2001575 4.67347975 -2.3125 6 C-3.23482422 7.11375 -3.23482422 7.11375 -4.17578125 8.25 C-6 10 -6 10 -9 10 C-6.03 6.7 -3.06 3.4 0 0 Z " fill="#CDAE6C" transform="translate(435,437)"/>
<path d="M0 0 C0.99 0.33 1.98 0.66 3 1 C3 1.66 3 2.32 3 3 C5.64 3 8.28 3 11 3 C11 3.66 11 4.32 11 5 C3.57142857 5.28571429 3.57142857 5.28571429 0 3 C0 2.01 0 1.02 0 0 Z " fill="#C6AE83" transform="translate(391,261)"/>
<path d="M0 0 C0.33 0.66 0.66 1.32 1 2 C-1.45614035 7 -1.45614035 7 -3 9 C-3.99 9.33 -4.98 9.66 -6 10 C-4.6302836 6.00499382 -2.74277578 3.19990508 0 0 Z " fill="#6C625C" transform="translate(180,182)"/>
<path d="M0 0 C0.33 0.99 0.66 1.98 1 3 C-1.64 5.31 -4.28 7.62 -7 10 C-7 7 -7 7 -5.46875 5.17578125 C-4.8190625 4.56089844 -4.169375 3.94601562 -3.5 3.3125 C-2.8503125 2.68988281 -2.200625 2.06726563 -1.53125 1.42578125 C-0.77328125 0.72001953 -0.77328125 0.72001953 0 0 Z " fill="#756D6A" transform="translate(290,406)"/>
<path d="M0 0 C0.33 0.99 0.66 1.98 1 3 C-1.31 5.31 -3.62 7.62 -6 10 C-6 6.41087588 -5.33563446 5.89142971 -3 3.3125 C-2.443125 2.68988281 -1.88625 2.06726563 -1.3125 1.42578125 C-0.879375 0.95527344 -0.44625 0.48476562 0 0 Z " fill="#70696B" transform="translate(253,230)"/>
<path d="M0 0 C3.96 0.33 7.92 0.66 12 1 C10.68 1.33 9.36 1.66 8 2 C7.67 2.66 7.34 3.32 7 4 C4.69 3.01 2.38 2.02 0 1 C0 0.67 0 0.34 0 0 Z " fill="#C6A96B" transform="translate(336,59)"/>
<path d="M0 0 C1.32 0 2.64 0 4 0 C2.95125002 2.62187494 2.35068687 3.79371361 -0.125 5.25 C-0.74375 5.4975 -1.3625 5.745 -2 6 C-1.34 4.02 -0.68 2.04 0 0 Z " fill="#E0BC6C" transform="translate(176,532)"/>
<path d="M0 0 C0.33 0 0.66 0 1 0 C1.25028811 1.58013217 1.47440946 3.16442306 1.6875 4.75 C1.87892578 6.07257813 1.87892578 6.07257813 2.07421875 7.421875 C2 10 2 10 -1 14 C-0.67 9.38 -0.34 4.76 0 0 Z " fill="#7A7171" transform="translate(371,332)"/>
<path d="M0 0 C0 0.99 0 1.98 0 3 C-2.8125 5.75 -2.8125 5.75 -6 8 C-6.99 7.67 -7.98 7.34 -9 7 C-6.03 4.69 -3.06 2.38 0 0 Z " fill="#D7B467" transform="translate(330,470)"/>
<path d="M0 0 C0.99 0.33 1.98 0.66 3 1 C1.35 2.65 -0.3 4.3 -2 6 C-2.99 5.67 -3.98 5.34 -5 5 C-3.35 3.35 -1.7 1.7 0 0 Z " fill="#575357" transform="translate(352,473)"/>
<path d="M0 0 C0.33 0.66 0.66 1.32 1 2 C0.01 3.485 0.01 3.485 -1 5 C-4.625 5.6875 -4.625 5.6875 -8 6 C-5.63379989 3.38472619 -3.057952 1.73559438 0 0 Z " fill="#817363" transform="translate(208,413)"/>
<path d="M0 0 C0.66 0.33 1.32 0.66 2 1 C0.02 3.31 -1.96 5.62 -4 8 C-4.33 7.34 -4.66 6.68 -5 6 C-4.34 5.01 -3.68 4.02 -3 3 C-2.34 3 -1.68 3 -1 3 C-0.67 2.01 -0.34 1.02 0 0 Z " fill="#C7A76A" transform="translate(366,427)"/>
<path d="M0 0 C2 3 2 3 2 5 C1.34 5 0.68 5 0 5 C-0.66 6.98 -1.32 8.96 -2 11 C-3 9 -3 9 -2.44140625 6.8359375 C-2.15136719 6.02382813 -1.86132812 5.21171875 -1.5625 4.375 C-1.27503906 3.55773437 -0.98757813 2.74046875 -0.69140625 1.8984375 C-0.46324219 1.27195312 -0.23507812 0.64546875 0 0 Z " fill="#918377" transform="translate(272,343)"/>
</svg>
