<?xml version="1.0" encoding="UTF-8"?>
<svg version="1.1" xmlns="http://www.w3.org/2000/svg" width="366" height="433">
<path d="M0 0 C120.78 0 241.56 0 366 0 C366 142.89 366 285.78 366 433 C245.22 433 124.44 433 0 433 C0 290.11 0 147.22 0 0 Z " fill="#38366A" transform="translate(0,0)"/>
<path d="M0 0 C120.78 0 241.56 0 366 0 C366 142.89 366 285.78 366 433 C245.22 433 124.44 433 0 433 C0 290.11 0 147.22 0 0 Z M36.9375 40.5 C36.20273437 40.80671631 35.46796875 41.11343262 34.7109375 41.42944336 C28.70436365 44.0416501 22.94432232 47.10099582 17.15844727 50.16210938 C16.27689217 50.62736023 15.39533707 51.09261108 14.48706818 51.57196045 C12.32417829 52.71363446 10.16184117 53.85634179 8 55 C7.95314309 75.97621831 7.91794436 96.9524279 7.89637566 117.92868805 C7.88609183 127.66976172 7.87208725 137.41080276 7.84912109 147.15185547 C7.82909816 155.64864135 7.81626257 164.14540357 7.81182301 172.64221239 C7.80923061 177.13529931 7.80319867 181.62831857 7.78853989 186.12138367 C7.77481479 190.36322787 7.77080702 194.60497751 7.77378464 198.84684181 C7.77324107 200.39140654 7.76935353 201.93597494 7.76158905 203.48052025 C7.6913665 218.18951259 9.4476801 232.31720127 12.375 246.75 C12.5709375 247.76964844 12.766875 248.78929687 12.96875 249.83984375 C19.93018669 284.6029675 38.3821371 316.91538253 62 343 C62.99386719 344.13115234 62.99386719 344.13115234 64.0078125 345.28515625 C73.27552158 355.76530755 82.95875246 365.38506277 94 374 C95.40572266 375.13115234 95.40572266 375.13115234 96.83984375 376.28515625 C117.17594678 392.38129957 139.62027848 405.8280097 162.98925781 417.02490234 C165.19055498 418.09240852 167.3720479 419.19566474 169.5546875 420.30078125 C171.07770568 421.05553424 172.60113364 421.80946098 174.125 422.5625 C174.82399414 422.92182617 175.52298828 423.28115234 176.24316406 423.65136719 C180.73520457 425.83097579 183.20248778 426.15409049 188 425 C190.10627266 424.14790615 192.18145864 423.21651132 194.2265625 422.2265625 C195.41314453 421.65486328 196.59972656 421.08316406 197.82226562 420.49414062 C199.09025004 419.87192103 200.35781946 419.2488551 201.625 418.625 C202.27138428 418.30909912 202.91776855 417.99319824 203.58374023 417.66772461 C227.53847656 405.95513957 250.18449398 392.7728251 271 376 C271.91523438 375.27683594 272.83046875 374.55367188 273.7734375 373.80859375 C316.77957863 339.36671281 346.31893894 293.61059676 357.375 239.375 C357.53049316 238.61936768 357.68598633 237.86373535 357.84619141 237.08520508 C360.1174832 225.1278272 360.16666165 212.9540977 360.24047852 200.82421875 C360.25332559 199.24422479 360.26646168 197.66423315 360.27986145 196.08424377 C360.3947212 181.79515879 360.45221491 167.5054322 360.49662876 153.2159729 C360.52998201 142.6686912 360.58986615 132.12225846 360.68413979 121.57534122 C360.74838899 114.13558355 360.78215013 106.6960584 360.79337829 99.2560339 C360.8009386 94.81952449 360.82212423 90.38404991 360.87640572 85.94784546 C360.92677229 81.78423946 360.9394708 77.6222192 360.92315483 73.45835686 C360.92375914 71.93167155 360.93806679 70.40492073 360.96710205 68.87851143 C361.4358331 60.90701035 361.4358331 60.90701035 358.25451183 54.01294231 C356.19680622 52.69989638 354.29296376 51.81753424 352 51 C350.62654419 50.25230347 350.62654419 50.25230347 349.2253418 49.48950195 C333.18435249 41.54419702 316.91339405 34.85795967 300 29 C299.23647217 28.73445313 298.47294434 28.46890625 297.6862793 28.1953125 C276.20548085 20.8743706 254.46525908 16.07319027 232 13 C230.83597656 12.83628906 229.67195312 12.67257812 228.47265625 12.50390625 C163.00337323 3.59301396 97.5668266 14.9751915 36.9375 40.5 Z " fill="#37366C" transform="translate(0,0)"/>
<path d="M0 0 C0.91152832 0.31227539 1.82305664 0.62455078 2.76220703 0.94628906 C16.53868647 5.72583826 29.82743637 11.07196676 42.9375 17.4375 C43.56700562 17.74209137 44.19651123 18.04668274 44.84509277 18.36050415 C57.36905581 24.4468873 57.36905581 24.4468873 60 27 C60.49498463 29.8472271 60.49498463 29.8472271 60.48774719 33.38546753 C60.49393209 34.3617318 60.49393209 34.3617318 60.50024194 35.35771859 C60.50918731 37.54342921 60.48949541 39.72794608 60.4699707 41.91357422 C60.47047941 43.4791122 60.47273456 45.04465045 60.47660828 46.61018372 C60.48203951 50.86917794 60.46257686 55.12773899 60.43850732 59.38665533 C60.41721688 63.85021464 60.41780574 68.31377224 60.41581726 72.77737427 C60.40936203 80.28460128 60.38809907 87.79166584 60.35668945 95.29882812 C60.31655481 104.90334585 60.29902259 114.50775717 60.28938007 124.11234856 C60.28103746 132.39423564 60.26380649 140.67610064 60.24434257 148.95796824 C60.24030649 150.72867472 60.236565 152.4993819 60.2331202 154.27008963 C60.22325169 159.33137588 60.2086026 164.3926005 60.1862812 169.45384789 C60.18022448 170.98031371 60.1757385 172.5067868 60.17303848 174.03326225 C60.14813225 186.92066923 59.67904611 199.46240761 56.8125 212.0625 C56.59182861 213.04710205 56.37115723 214.0317041 56.14379883 215.04614258 C44.61506008 265.2189235 18.06704495 309.41619929 -22.40185547 341.71386719 C-24.0841001 343.06768092 -25.74768025 344.44231188 -27.41015625 345.8203125 C-50.93395906 365.18646452 -77.60895495 379.87005316 -105 393 C-106.26142822 393.63977783 -106.26142822 393.63977783 -107.54833984 394.29248047 C-112.1492884 396.53771262 -114.94136451 397.69676384 -120 396 C-123.70761815 394.54202618 -127.32353997 392.92571607 -130.9375 391.25 C-131.99001953 390.764104 -133.04253906 390.27820801 -134.12695312 389.77758789 C-145.43661663 384.4624844 -156.26478605 378.38426119 -167 372 C-167.763125 371.54737793 -168.52625 371.09475586 -169.3125 370.62841797 C-179.30761347 364.65534178 -188.74118372 358.05339008 -198 351 C-198.59554687 350.55011719 -199.19109375 350.10023438 -199.8046875 349.63671875 C-245.4772232 315.03329105 -278.16852097 267.72259059 -289.25 211.125 C-289.49508301 209.87795288 -289.49508301 209.87795288 -289.74511719 208.60571289 C-291.9531288 196.68409794 -292.14360711 184.76311918 -292.11352539 172.67480469 C-292.1132427 171.06714378 -292.11340285 169.45948274 -292.1139679 167.8518219 C-292.11425268 163.52414659 -292.10840776 159.19649948 -292.10139394 154.86883068 C-292.09510707 150.33249749 -292.0945524 145.79616353 -292.09336853 141.25982666 C-292.09027085 132.68601444 -292.0820787 124.11221509 -292.07201904 115.53840852 C-292.06080915 105.7704823 -292.0553352 96.00255544 -292.05032361 86.23462439 C-292.03989465 66.15640909 -292.02232572 46.07820536 -292 26 C-288.70333977 24.24984484 -285.40279096 22.50714584 -282.1015625 20.765625 C-280.72013062 20.03206787 -280.72013062 20.03206787 -279.31079102 19.28369141 C-258.66408272 8.41127095 -236.34302106 0.5975323 -214 -6 C-213.25878906 -6.21897949 -212.51757812 -6.43795898 -211.75390625 -6.66357422 C-143.28300131 -26.53397523 -67.17855852 -23.15735123 0 0 Z M-168 12 C-168.85658203 12.13921875 -169.71316406 12.2784375 -170.59570312 12.421875 C-176.44950408 13.4043311 -182.22430522 14.63515954 -188 16 C-189.5144873 16.35553955 -189.5144873 16.35553955 -191.05957031 16.71826172 C-216.74841716 22.84619419 -241.36950207 31.16253436 -265 43 C-265.07053086 60.96959557 -265.12320157 78.93915451 -265.15543652 96.90885925 C-265.17081115 105.25520495 -265.19171721 113.60146393 -265.22631836 121.94775391 C-265.25651252 129.23457977 -265.27564301 136.52134275 -265.28226548 143.80822945 C-265.28612777 147.65551684 -265.29499982 151.50262457 -265.31719017 155.34985352 C-265.41552472 173.09444118 -264.84526174 190.44097576 -262 208 C-261.88002844 208.75327072 -261.76005688 209.50654144 -261.63644981 210.28263855 C-254.25258689 255.92264096 -222.36143337 298.69355393 -186 326 C-185.36400879 326.48001465 -184.72801758 326.9600293 -184.07275391 327.45458984 C-165.795107 341.17653432 -146.30927762 352.54370161 -126 363 C-125.17387207 363.44102051 -124.34774414 363.88204102 -123.49658203 364.33642578 C-118.91306739 366.64534919 -118.91306739 366.64534919 -113.890625 366.46875 C-112.93671875 365.9840625 -111.9828125 365.499375 -111 365 C-109.29070312 364.21109375 -109.29070312 364.21109375 -107.546875 363.40625 C-106.27846882 362.77640339 -105.01297621 362.14066533 -103.75 361.5 C-103.06180176 361.15251709 -102.37360352 360.80503418 -101.66455078 360.44702148 C-84.26206092 351.57757987 -67.58466964 341.81176475 -52 330 C-51.45875488 329.59023926 -50.91750977 329.18047852 -50.35986328 328.75830078 C-41.82025735 322.26145531 -33.75723101 315.41198568 -26 308 C-25.12472656 307.16597656 -24.24945313 306.33195312 -23.34765625 305.47265625 C-17.40743307 299.67887925 -12.10499144 293.53654989 -7 287 C-6.25878906 286.06414062 -5.51757812 285.12828125 -4.75390625 284.1640625 C19.72288218 252.51816272 33.44624167 214.08984227 33.22705078 174.00830078 C33.22648486 172.56783048 33.22680675 171.12735961 33.22793579 169.68688965 C33.22850324 165.82415332 33.21684899 161.96154442 33.20278788 158.09883738 C33.19017764 154.04432245 33.18910199 149.98980373 33.18673706 145.93527222 C33.18055225 138.27877854 33.16418258 130.62234284 33.14403808 122.96587455 C33.12158503 114.24021019 33.11066214 105.51454287 33.10064721 96.78885674 C33.07981325 78.85920512 33.04469641 60.92960724 33 43 C28.99906362 41.23614844 24.99762266 39.47344437 20.99609375 37.7109375 C19.87021851 37.21456787 18.74434326 36.71819824 17.58435059 36.20678711 C4.38468591 30.39440051 -8.56607111 25.2787032 -22.53515625 21.65625 C-25.05623117 20.98502878 -27.55838744 20.26304545 -30.0625 19.53125 C-41.84996471 16.16663297 -53.63516537 13.93836493 -65.75 12.1875 C-66.47711182 12.08236084 -67.20422363 11.97722168 -67.95336914 11.86889648 C-79.84036842 10.17036949 -91.60386654 8.85503704 -103.625 8.796875 C-104.60229065 8.78990601 -105.5795813 8.78293701 -106.58648682 8.77575684 C-109.7243689 8.75846206 -112.86207224 8.75203676 -116 8.75 C-117.07213745 8.74899292 -118.1442749 8.74798584 -119.24890137 8.74694824 C-135.68488572 8.75739237 -151.75465289 9.27875774 -168 12 Z " fill="#F0CE6F" transform="translate(300,29)"/>
<path d="M0 0 C16.12543011 12.79064729 27.06643038 31.1943077 30.60546875 51.5078125 C31.23544499 57.08403786 31.3876789 62.69037675 31.48291016 68.29980469 C31.72588677 76.69268714 33.49831652 84.42854473 39 91 C41.97262706 92.96305561 44.610383 94.53220814 47.97265625 95.6640625 C49.875 96.3125 49.875 96.3125 53 98 C54.125 101.5 54.125 101.5 54 105 C53 106.9375 53 106.9375 51 108 C43.17435766 109.27765589 37.00011568 105.01930863 30.75 100.8125 C20.46592827 90.29469937 18.79574568 77.3079075 18.125 63.1875 C16.9163336 44.25396226 11.17444911 27.32895565 -3 14 C-19.14301307 0.62020539 -37.76736961 -5.72483717 -58.65332031 -4.24365234 C-77.15359835 -2.32279534 -92.77752575 7.24838065 -104.828125 21.09375 C-114.4476062 33.96586153 -119.62034707 48.8039461 -120.28710938 64.81787109 C-120.80684136 76.98248698 -122.90644928 88.19062274 -132 97 C-134.87298329 99.25179771 -137.82156713 101.20809237 -141 103 C-141.99773437 103.56460938 -141.99773437 103.56460938 -143.015625 104.140625 C-146.46824279 105.63585317 -149.2594899 105.29686588 -153 105 C-155 103.875 -155 103.875 -156 102 C-156.375 99 -156.375 99 -156 96 C-153.88186618 93.29459543 -151.9565759 92.49449514 -148.6875 91.625 C-143.35042078 89.90951025 -139.70242388 87.8710845 -136.81640625 83.00390625 C-133.62558112 75.69890367 -133.31832593 68.04369346 -132.71118164 60.2019043 C-130.96120184 38.02858655 -122.16714231 18.82505172 -105.97265625 3.49609375 C-75.35873706 -22.20994352 -32.07340429 -24.6616685 0 0 Z " fill="#EDCB6F" transform="translate(235,124)"/>
<path d="M0 0 C8.65546507 5.8200541 14.6352014 15.54401718 16.7265625 25.68359375 C17.01045784 28.95127232 17.12476061 32.21825635 17.2265625 35.49609375 C17.8057061 53.86904249 24.70336574 72.34860775 37.7265625 85.68359375 C47.17010697 94.44922101 57.72146512 99.61839198 69.85546875 103.60546875 C72.7265625 104.68359375 72.7265625 104.68359375 74.7265625 106.68359375 C74.9765625 110.18359375 74.9765625 110.18359375 74.7265625 113.68359375 C72.7265625 115.68359375 72.7265625 115.68359375 69.9140625 116.05859375 C52.72041134 115.38502803 37.10019555 103.71182439 25.7265625 91.68359375 C11.5634686 75.57002682 5.29225068 56.18295718 4.3515625 34.99609375 C3.85286934 26.51831008 1.89039941 18.84743066 -4.2734375 12.68359375 C-10.49460233 7.84490999 -16.85053774 6.12638187 -24.6484375 6.3046875 C-30.82682944 7.19650896 -35.6963599 10.17508474 -40.1484375 14.43359375 C-45.46152013 22.55948483 -46.7823013 29.08307115 -46.7734375 38.74609375 C-47.19749499 59.73079359 -53.19365048 78.61708832 -67.2734375 94.68359375 C-67.9334375 94.68359375 -68.5934375 94.68359375 -69.2734375 94.68359375 C-69.2734375 95.34359375 -69.2734375 96.00359375 -69.2734375 96.68359375 C-81.51443356 107.71151813 -98.65112286 116.29279694 -115.34765625 116.01953125 C-117.2734375 115.68359375 -117.2734375 115.68359375 -119.2734375 113.68359375 C-119.72088217 110.25318458 -119.83072237 108.42945481 -117.7265625 105.61328125 C-114.58728971 103.14385329 -111.47244252 102.47096763 -107.6484375 101.68359375 C-106.20205147 101.3483484 -104.75672303 101.00850676 -103.3125 100.6640625 C-102.61543945 100.49825684 -101.91837891 100.33245117 -101.20019531 100.16162109 C-86.77109528 96.58177088 -75.98199449 87.19810293 -68.2734375 74.68359375 C-60.92074638 61.16595391 -58.75996617 45.65580104 -58.77636719 30.47119141 C-58.6469279 20.50621533 -55.08516186 11.98078621 -48.2734375 4.68359375 C-33.89728317 -8.80957222 -16.91335101 -9.79346957 0 0 Z " fill="#EECC6F" transform="translate(206.2734375,161.31640625)"/>
<path d="M0 0 C4.46876455 3.07848225 8.07974831 6.73924494 9.8125 11.9375 C9.92449549 13.90364304 10.03167899 15.87031518 10.10229492 17.83837891 C11.03438944 43.53641162 18.77075811 65.33298818 36.8125 83.9375 C37.33972656 84.53820312 37.86695313 85.13890625 38.41015625 85.7578125 C46.78324695 94.96607081 58.48132428 101.20262275 69.8125 105.9375 C77.43096154 109.55596154 77.43096154 109.55596154 78.8125 110.9375 C78.2125 117.5375 78.2125 117.5375 75.8125 119.9375 C69.61240898 120.25940453 64.09046275 118.18647968 58.625 115.5 C57.89595459 115.14800537 57.16690918 114.79601074 56.41577148 114.43334961 C48.96249333 110.71035973 42.31239815 106.12451859 35.8125 100.9375 C34.92046875 100.22980469 34.0284375 99.52210938 33.109375 98.79296875 C13.82047182 82.44592659 0.38794273 57.08527823 -1.78515625 31.87890625 C-1.94646223 29.75307705 -2.10132145 27.62674966 -2.25 25.5 C-2.40383576 23.35519896 -2.56120436 21.21064743 -2.72265625 19.06640625 C-2.788479 18.12869385 -2.85430176 17.19098145 -2.92211914 16.22485352 C-3.05881744 13.91057103 -3.05881744 13.91057103 -4.1875 11.9375 C-6.4975 11.9375 -8.8075 11.9375 -11.1875 11.9375 C-11.85476493 33.58654005 -7.76283994 53.57392476 1.8125 72.9375 C2.10608398 73.53804199 2.39966797 74.13858398 2.70214844 74.75732422 C14.99040943 99.36779167 36.03487987 114.30978002 59.73828125 126.74609375 C61.8125 127.9375 61.8125 127.9375 63.8125 129.9375 C63.625 133.4375 63.625 133.4375 62.8125 136.9375 C59.8125 138.9375 59.8125 138.9375 57.0390625 138.75390625 C30.78050971 132.10979301 7.30810483 107.57470084 -6.25390625 85.17626953 C-17.58275857 65.94125781 -23.32200726 44.72219127 -23.5 22.4375 C-23.52900391 21.22707031 -23.55800781 20.01664063 -23.58789062 18.76953125 C-23.66723066 7.67413277 -23.66723066 7.67413277 -19.1875 2.9375 C-12.98114531 -1.68684271 -7.37020424 -2.45673475 0 0 Z " fill="#EDCB6F" transform="translate(192.1875,178.0625)"/>
<path d="M0 0 C0.54398438 0.44472656 1.08796875 0.88945313 1.6484375 1.34765625 C1.3359375 4.72265625 1.3359375 4.72265625 0.6484375 8.34765625 C-2.3515625 10.34765625 -2.3515625 10.34765625 -5.609375 10.125 C-9.33646658 9.35079204 -12.67353703 8.26771814 -16.2265625 6.91015625 C-34.93676963 -0.2287041 -57.42674714 -0.32295807 -76.3515625 6.34765625 C-77.021875 6.58371582 -77.6921875 6.81977539 -78.3828125 7.06298828 C-88.86519244 10.91198717 -97.5832132 16.50490522 -106.3515625 23.34765625 C-107.21652344 24.0025 -108.08148438 24.65734375 -108.97265625 25.33203125 C-125.74939427 39.54680435 -135.97485775 62.80036127 -138.3515625 84.34765625 C-138.54652021 89.06825636 -138.64695164 93.79327099 -138.69335938 98.51757812 C-138.90282509 105.68325409 -138.90282509 105.68325409 -141.1640625 109.03125 C-143.3515625 110.34765625 -143.3515625 110.34765625 -147.0390625 110.22265625 C-148.1321875 109.93390625 -149.2253125 109.64515625 -150.3515625 109.34765625 C-156.29592357 97.45893411 -151.2062659 75.65395821 -147.3515625 63.34765625 C-147.13725586 62.65494629 -146.92294922 61.96223633 -146.70214844 61.24853516 C-142.37553873 47.70505017 -135.40940405 36.31241182 -126.3515625 25.34765625 C-125.89523438 24.75726563 -125.43890625 24.166875 -124.96875 23.55859375 C-98.78595364 -9.2073057 -36.31781615 -25.51899706 0 0 Z " fill="#EDCC6F" transform="translate(230.3515625,93.65234375)"/>
<path d="M0 0 C6.72 0.72 6.72 0.72 8 2 C8.59789931 5.22865625 8.79043613 6.87327478 8 10 C5.93491743 12.94209463 3.63908368 15.56321678 1.26171875 18.2578125 C-1.74003275 21.89724178 -3.46205806 25.57742083 -5 30 C-5.34546875 30.82113281 -5.6909375 31.64226562 -6.046875 32.48828125 C-7.46832356 37.72550359 -7.52625407 42.97263921 -7.8125 48.375 C-9.05313857 67.0545833 -13.45039786 82.667162 -27.5 95.93359375 C-36.38446802 103.27716184 -49.09612868 110.08217012 -61 109 C-63.77389443 106.97580677 -64.85519403 105.84814923 -65.4375 102.4375 C-64.89991155 99.44236433 -64.40437271 98.83633354 -62 97 C-59.65067906 96.28449938 -57.26926635 95.67156989 -54.875 95.125 C-48.6295093 93.59622618 -43.34317863 91.60109195 -38 88 C-37.113125 87.4225 -36.22625 86.845 -35.3125 86.25 C-24.56310395 75.79112817 -20.92936605 61.19958742 -20.5625 46.6875 C-19.79246666 28.55303909 -14.09865017 13.90188933 -1 1 C-0.67 0.67 -0.34 0.34 0 0 Z " fill="#EECC6F" transform="translate(146,145)"/>
<path d="M0 0 C2.16799088 1.59275064 3.96845273 3.08165212 5.875 4.9375 C6.39674805 5.43330566 6.91849609 5.92911133 7.45605469 6.43994141 C28.1788937 26.50440522 38.97648577 53.13431367 39.48486328 81.74194336 C39.4898584 83.04397705 39.49485352 84.34601074 39.5 85.6875 C39.50628418 86.95924072 39.51256836 88.23098145 39.51904297 89.54125977 C39.39408184 98.47476716 39.39408184 98.47476716 37.62304688 100.83520508 C36 102 36 102 33.5625 102.5 C31 102 31 102 28.87890625 100.2578125 C25.95476106 95.18767302 26.40083267 90.12922748 26.375 84.375 C26.11394115 61.58456201 20.30494101 40.50218502 5 23 C4.43796875 22.46632813 3.8759375 21.93265625 3.296875 21.3828125 C2 20 2 20 2 18 C1.41734375 17.73574219 0.8346875 17.47148438 0.234375 17.19921875 C-3.54088418 15.17298699 -6.46217333 12.44617446 -9 9 C-9.61919167 5.28485001 -9.72515846 3.2891706 -7.875 0 C-4.95728127 -1.55611666 -3.14854186 -0.84390004 0 0 Z " fill="#EDCB6E" transform="translate(250,105)"/>
<path d="M0 0 C7.91295838 6.54949478 15.08992023 16.17080882 18.2890625 26.0390625 C18.1015625 29.2265625 18.1015625 29.2265625 17.2890625 32.0390625 C14.05652454 34.19408781 13.03755327 34.50762385 9.2890625 34.0390625 C6.27885675 31.68014137 5.05317614 28.71157366 3.4765625 25.2890625 C-1.89903908 14.3669967 -9.6573823 7.1858982 -21.0859375 2.6015625 C-30.8494998 -0.36554604 -42.15996334 0.22075986 -52.1953125 1.62109375 C-55.7109375 2.0390625 -55.7109375 2.0390625 -57.7109375 1.0390625 C-59.21006351 -1.95918952 -58.8972245 -4.66986719 -58.7109375 -7.9609375 C-39.60172091 -18.47100662 -16.76325101 -12.12557926 0 0 Z " fill="#ECCA6D" transform="translate(221.7109375,143.9609375)"/>
<path d="M0 0 C3.3125 1.0625 3.3125 1.0625 5.3125 4.0625 C4.92157576 11.21641357 0.62369957 15.66982205 -3.6875 21.0625 C-4.69683594 22.34060547 -4.69683594 22.34060547 -5.7265625 23.64453125 C-16.9746249 37.02003616 -32.65403075 45.68240475 -49.125 51 C-50.10025635 51.31771362 -50.10025635 51.31771362 -51.09521484 51.6418457 C-55.81491061 53.06454362 -61.13830767 54.41675843 -65.6875 52 C-67.38157817 48.71772354 -66.7329351 46.50628623 -65.6875 43.0625 C-62.04227602 40.84580974 -58.33027777 39.57052358 -54.2331543 38.42871094 C-33.79196599 32.7213842 -19.0814014 21.65335209 -7.265625 3.9296875 C-4.91420791 0.64686494 -4.15582447 0.0704377 0 0 Z " fill="#EDCB6F" transform="translate(164.6875,246.9375)"/>
<path d="M0 0 C3.03583263 2.28820221 3.9133432 3.59763139 4.72265625 7.35546875 C4.83480469 8.62003906 4.94695312 9.88460937 5.0625 11.1875 C6.51899152 24.65680992 11.37115345 36.14262788 22 45 C27.5267423 49.37737554 33.37266783 51.21362594 40.14453125 53.0078125 C42.95586119 53.98466312 44.2518607 54.63310349 46 57 C46.375 59.5 46.375 59.5 46 62 C44.40066822 64.10385285 43.4837373 64.90147736 40.87109375 65.43359375 C27.34433132 65.45530605 17.39603484 58.18841066 7.75 49.25 C-2.50245347 38.51433663 -8.04491878 24.02707763 -8.25 9.3125 C-8.27578125 8.19488281 -8.3015625 7.07726562 -8.328125 5.92578125 C-8 3 -8 3 -6.63671875 1.1328125 C-4.25016815 -0.5189767 -2.83889396 -0.48468921 0 0 Z " fill="#EDCB6E" transform="translate(241,190)"/>
<path d="M0 0 C2.75 0.6875 2.75 0.6875 4.6875 1.75 C6.43699042 4.94024723 5.58350048 7.22471688 4.75 10.6875 C3.19001851 13.1151297 1.28436949 15.08815448 -0.75 17.125 C-1.29825439 17.69065674 -1.84650879 18.25631348 -2.41137695 18.83911133 C-4.00856486 20.47177674 -5.62691419 22.08065029 -7.25 23.6875 C-7.97574219 24.43515625 -8.70148438 25.1828125 -9.44921875 25.953125 C-18.61887786 34.81652831 -30.64838381 40.85495924 -42.3125 45.75 C-42.98990234 46.03689697 -43.66730469 46.32379395 -44.36523438 46.61938477 C-49.00225715 48.46905432 -53.26183208 49.33848933 -58.25 49.6875 C-60.25 48.6875 -60.25 48.6875 -61.25 46.6875 C-61.6875 43.1875 -61.6875 43.1875 -61.25 39.6875 C-57.82601292 36.15481491 -52.97823768 35.0924042 -48.4375 33.5625 C-31.42177676 27.50723834 -17.70922787 18.0275465 -6.3125 3.9375 C-4.03368476 1.21762375 -3.6300769 0.76790088 0 0 Z " fill="#EECD70" transform="translate(177.25,271.3125)"/>
<path d="M0 0 C3.46171996 0.94410544 4.8029555 1.71261058 6.75 4.75 C7.04041071 8.52533917 6.57679808 10.75344869 4.1328125 13.69921875 C2.75011243 15.06846843 1.342014 16.41238457 -0.0859375 17.734375 C-2.03911703 19.55358192 -3.76989995 21.40910684 -5.5 23.4375 C-6.06332031 24.08074219 -6.62664062 24.72398438 -7.20703125 25.38671875 C-8.34693393 26.70534422 -9.481543 28.02877609 -10.59521484 29.36962891 C-12.10524643 31.18176652 -13.64445138 32.96594051 -15.1875 34.75 C-15.66541992 35.33869873 -16.14333984 35.92739746 -16.63574219 36.53393555 C-19.45890378 39.74435755 -20.82589068 40.66492418 -25.1640625 41.53515625 C-30.38556494 41.10847958 -33.25726729 37.84765101 -36.6875 34.1875 C-37.31076172 33.57841797 -37.93402344 32.96933594 -38.57617188 32.34179688 C-42.43889855 28.3697874 -44.26415984 25.52721463 -44.25 19.75 C-42.27866861 16.67472304 -40.97040612 15.92609927 -37.4375 15.0625 C-33.2221222 15.97169913 -31.65851254 18.06791799 -28.9609375 21.31640625 C-28.39632812 21.78949219 -27.83171875 22.26257813 -27.25 22.75 C-22.6162777 22.16567184 -20.42291031 19.02670922 -17.5 15.6875 C-16.43046752 14.50450266 -15.36015427 13.32221074 -14.2890625 12.140625 C-12.48744339 10.1343527 -10.69173275 8.12310854 -8.8984375 6.109375 C-4.08483874 0.94265509 -4.08483874 0.94265509 0 0 Z " fill="#EECC6D" transform="translate(102.25,82.25)"/>
<path d="M0 0 C3.0625 0.75 3.0625 0.75 5.0625 2.75 C5.67213066 7.17784372 5.46612689 9.15564831 2.9296875 12.890625 C1.95352246 13.94710317 0.95453559 14.98280634 -0.0625 16 C-0.6002002 16.55647217 -1.13790039 17.11294434 -1.69189453 17.6862793 C-12.71035823 28.8171763 -29.57333761 43.51358376 -45.6875 45.125 C-48.9375 44.75 -48.9375 44.75 -50.9375 43.6875 C-52.62419315 40.41953202 -51.91298266 38.20886791 -50.9375 34.75 C-48.38723724 33.01259471 -46.3571668 31.91183488 -43.5625 30.75 C-42.09040534 30.07605845 -40.62035148 29.39764182 -39.15234375 28.71484375 C-38.06928955 28.21960205 -38.06928955 28.21960205 -36.96435547 27.71435547 C-25.95078211 22.47421878 -15.96116518 14.51589821 -8.1875 5.1875 C-3.79560939 0.10173798 -3.79560939 0.10173798 0 0 Z " fill="#EECC6F" transform="translate(193.9375,291.25)"/>
<path d="M0 0 C1.8125 1.125 1.8125 1.125 3 3 C3.35613003 6.46986152 3.34199007 8.41386443 1.56640625 11.45703125 C-0.59580222 13.99857454 -2.76346239 16.52329728 -5 19 C-6.02867187 20.15242188 -6.02867187 20.15242188 -7.078125 21.328125 C-12.81899857 27.40919849 -21.63732215 36.47083083 -30.24609375 37.3203125 C-33.46758699 36.945614 -34.83314562 36.41687604 -37 34 C-37.6875 31.6875 -37.6875 31.6875 -37 29 C-34.92313513 26.67158938 -32.48638828 24.87162195 -30 23 C-28.47876451 21.81301522 -26.9579394 20.62550434 -25.4375 19.4375 C-22.94915227 17.50398656 -20.45242621 15.58652591 -17.9375 13.6875 C-14.41516799 10.46494093 -11.62611141 6.89777386 -8.734375 3.109375 C-6.0670706 -0.13464386 -4.09778449 -0.39978385 0 0 Z " fill="#EDCB70" transform="translate(215,308)"/>
<path d="M0 0 C2.9375 0.4375 2.9375 0.4375 5.9375 2.4375 C5.75 5.75 5.75 5.75 4.9375 9.4375 C2.12678496 11.92699046 0.42731994 12.39982154 -3.3125 12.6875 C-6.0625 12.4375 -6.0625 12.4375 -7.0625 11.4375 C-7.48459289 7.72308261 -7.29424237 5.84750573 -5.4375 2.5625 C-3.0625 0.4375 -3.0625 0.4375 0 0 Z " fill="#EFCD70" transform="translate(231.0625,321.5625)"/>
<path d="M0 0 C0.33 0.66 0.66 1.32 1 2 C0.236875 2.28875 -0.52625 2.5775 -1.3125 2.875 C-4.15029308 3.96269013 -4.15029308 3.96269013 -7 6 C-7.33 5.01 -7.66 4.02 -8 3 C-5.53387212 -0.1151089 -3.89156016 -0.31553191 0 0 Z " fill="#E5C369" transform="translate(241,190)"/>
<path d="M0 0 C-0.804375 0.309375 -0.804375 0.309375 -1.625 0.625 C-5.0017654 2.57996944 -7.30474839 5.18223695 -10 8 C-10.66 7.67 -11.32 7.34 -12 7 C-6.20833333 -0.16337719 -6.20833333 -0.16337719 0 0 Z " fill="#DCBD70" transform="translate(215,308)"/>
<path d="M0 0 C-2.98646769 1.99097846 -5.59687262 2.94124926 -9 4 C-8.67 3.01 -8.34 2.02 -8 1 C-5.29120665 -0.35439668 -2.99066732 -0.06501451 0 0 Z " fill="#DDBE6E" transform="translate(68,98)"/>
</svg>
